<svg xmlns="http://www.w3.org/2000/svg" width="582" height="295" x-original-source="quest_scene-&gt;controller: make some progress controller-&gt;server: update quest state server-&gt;controller: new state controller-&gt;unity: quest progress state(new state) controller-&gt;quest_scene: new state (return)"><defs><marker id="markerArrowBlock" markerHeight="5" markerWidth="5" orient="auto" refX="5" refY="2.5" viewBox="0 0 5 5"><path d="M 0 0 L 5 2.5 L 0 5 z"/></marker><marker id="markerArrowOpen" markerHeight="16" markerWidth="4" orient="auto" refX="9.6" refY="8" viewBox="0 0 9.6 16"><path d="M 9.6,8 1.92,16 0,13.7 5.76,8 0,2.286 1.92,0 9.6,8 z"/></marker></defs><rect width="113" height="34" x="10" y="10" fill="#fff" stroke="#000" style="stroke-width:2px"/><text x="20" y="33" text-anchor="start" style="font:14px Menlo,Monaco,&quot;Courier New&quot;,monospace"><tspan x="20" y="33">quest_scene</tspan></text><rect width="113" height="34" x="10" y="231" fill="#fff" stroke="#000" style="stroke-width:2px"/><text x="20" y="254" text-anchor="start" style="font:14px Menlo,Monaco,&quot;Courier New&quot;,monospace"><tspan x="20" y="254">quest_scene</tspan></text><line x1="66" x2="66" y1="44" y2="231" fill="none" stroke="#000" style="stroke-width:2px"/><rect width="105" height="34" x="186" y="10" fill="#fff" stroke="#000" style="stroke-width:2px"/><text x="196" y="32" text-anchor="start" style="font:14px Menlo,Monaco,&quot;Courier New&quot;,monospace"><tspan x="196" y="32">controller</tspan></text><rect width="105" height="34" x="186" y="231" fill="#fff" stroke="#000" style="stroke-width:2px"/><text x="196" y="253" text-anchor="start" style="font:14px Menlo,Monaco,&quot;Courier New&quot;,monospace"><tspan x="196" y="253">controller</tspan></text><line x1="238" x2="238" y1="44" y2="231" fill="none" stroke="#000" style="stroke-width:2px"/><rect width="71" height="34" x="375" y="10" fill="#fff" stroke="#000" style="stroke-width:2px"/><text x="385" y="31" text-anchor="start" style="font:14px Menlo,Monaco,&quot;Courier New&quot;,monospace"><tspan x="385" y="31">server</tspan></text><rect width="71" height="34" x="375" y="231" fill="#fff" stroke="#000" style="stroke-width:2px"/><text x="385" y="252" text-anchor="start" style="font:14px Menlo,Monaco,&quot;Courier New&quot;,monospace"><tspan x="385" y="252">server</tspan></text><line x1="410" x2="410" y1="44" y2="231" fill="none" stroke="#000" style="stroke-width:2px"/><rect width="63" height="34" x="489" y="10" fill="#fff" stroke="#000" style="stroke-width:2px"/><text x="499" y="34" text-anchor="start" style="font:14px Menlo,Monaco,&quot;Courier New&quot;,monospace"><tspan x="499" y="34">unity</tspan></text><rect width="63" height="34" x="489" y="231" fill="#fff" stroke="#000" style="stroke-width:2px"/><text x="499" y="255" text-anchor="start" style="font:14px Menlo,Monaco,&quot;Courier New&quot;,monospace"><tspan x="499" y="255">unity</tspan></text><line x1="520" x2="520" y1="44" y2="231" fill="none" stroke="#000" style="stroke-width:2px"/><text x="76" y="78" text-anchor="start" style="font:14px Menlo,Monaco,&quot;Courier New&quot;,monospace"><tspan x="76" y="78">make some progress</tspan></text><line x1="66" x2="238" y1="83" y2="83" fill="none" stroke="#000" marker-end="url(#markerArrowBlock)" style="stroke-width:2px"/><text x="248" y="112" text-anchor="start" style="font:14px Menlo,Monaco,&quot;Courier New&quot;,monospace"><tspan x="248" y="112">update quest state</tspan></text><line x1="238" x2="410" y1="117" y2="117" fill="none" stroke="#000" marker-end="url(#markerArrowBlock)" style="stroke-width:2px"/><text x="286" y="143" text-anchor="start" style="font:14px Menlo,Monaco,&quot;Courier New&quot;,monospace"><tspan x="286" y="143">new state</tspan></text><line x1="410" x2="238" y1="148" y2="148" fill="none" stroke="#000" marker-end="url(#markerArrowBlock)" style="stroke-width:2px"/><text x="248" y="178" text-anchor="start" style="font:14px Menlo,Monaco,&quot;Courier New&quot;,monospace"><tspan x="248" y="178">quest progress state(new state)</tspan></text><line x1="238" x2="520" y1="183" y2="183" fill="none" stroke="#000" marker-end="url(#markerArrowBlock)" style="stroke-width:2px"/><text x="76" y="211" text-anchor="start" style="font:14px Menlo,Monaco,&quot;Courier New&quot;,monospace"><tspan x="76" y="211">new state (return)</tspan></text><line x1="238" x2="66" y1="216" y2="216" fill="none" stroke="#000" marker-end="url(#markerArrowBlock)" style="stroke-width:2px"/></svg>