<svg xmlns="http://www.w3.org/2000/svg" width="410" height="163" x-original-source="quest_scene-&gt;unity: quest progress state(new state)"><defs><marker id="markerArrowBlock" markerHeight="5" markerWidth="5" orient="auto" refX="5" refY="2.5" viewBox="0 0 5 5"><path d="M 0 0 L 5 2.5 L 0 5 z"/></marker><marker id="markerArrowOpen" markerHeight="16" markerWidth="4" orient="auto" refX="9.6" refY="8" viewBox="0 0 9.6 16"><path d="M 9.6,8 1.92,16 0,13.7 5.76,8 0,2.286 1.92,0 9.6,8 z"/></marker></defs><rect width="113" height="34" x="10" y="10" fill="#fff" stroke="#000" style="stroke-width:2px"/><text x="20" y="33" text-anchor="start" style="font:14px Menlo,Monaco,&quot;Courier New&quot;,monospace"><tspan x="20" y="33">quest_scene</tspan></text><rect width="113" height="34" x="10" y="99" fill="#fff" stroke="#000" style="stroke-width:2px"/><text x="20" y="122" text-anchor="start" style="font:14px Menlo,Monaco,&quot;Courier New&quot;,monospace"><tspan x="20" y="122">quest_scene</tspan></text><line x1="66" x2="66" y1="44" y2="99" fill="none" stroke="#000" style="stroke-width:2px"/><rect width="63" height="34" x="317" y="10" fill="#fff" stroke="#000" style="stroke-width:2px"/><text x="327" y="34" text-anchor="start" style="font:14px Menlo,Monaco,&quot;Courier New&quot;,monospace"><tspan x="327" y="34">unity</tspan></text><rect width="63" height="34" x="317" y="99" fill="#fff" stroke="#000" style="stroke-width:2px"/><text x="327" y="123" text-anchor="start" style="font:14px Menlo,Monaco,&quot;Courier New&quot;,monospace"><tspan x="327" y="123">unity</tspan></text><line x1="348" x2="348" y1="44" y2="99" fill="none" stroke="#000" style="stroke-width:2px"/><text x="76" y="79" text-anchor="start" style="font:14px Menlo,Monaco,&quot;Courier New&quot;,monospace"><tspan x="76" y="79">quest progress state(new state)</tspan></text><line x1="66" x2="348" y1="84" y2="84" fill="none" stroke="#000" marker-end="url(#markerArrowBlock)" style="stroke-width:2px"/></svg>