<svg xmlns="http://www.w3.org/2000/svg" width="684" height="371" x-original-source="kernel-&gt;website: [stage: loading, signing: false] Note over website: LoadingContainer User-&gt;website: *press Enter as guest* website-&gt;kernel: {type:[AUTHENTICATE], payload: {null}} kernel-&gt;website: [signing: true] Note over website: Spinner in LoadingContainer Note over kernel: Start Experience"><defs><marker id="markerArrowBlock" markerHeight="5" markerWidth="5" orient="auto" refX="5" refY="2.5" viewBox="0 0 5 5"><path d="M 0 0 L 5 2.5 L 0 5 z"/></marker><marker id="markerArrowOpen" markerHeight="16" markerWidth="4" orient="auto" refX="9.6" refY="8" viewBox="0 0 9.6 16"><path d="M 9.6,8 1.92,16 0,13.7 5.76,8 0,2.286 1.92,0 9.6,8 z"/></marker></defs><rect width="71" height="29" x="47" y="10" fill="#fff" stroke="#000" style="stroke-width:2px"/><text x="57" y="29" text-anchor="start" style="font:14px Menlo,Monaco,&quot;Courier New&quot;,monospace"><tspan x="57" y="29">kernel</tspan></text><rect width="71" height="29" x="47" y="312" fill="#fff" stroke="#000" style="stroke-width:2px"/><text x="57" y="331" text-anchor="start" style="font:14px Menlo,Monaco,&quot;Courier New&quot;,monospace"><tspan x="57" y="331">kernel</tspan></text><line x1="82" x2="82" y1="39" y2="312" fill="none" stroke="#000" style="stroke-width:2px"/><rect width="79" height="29" x="383" y="10" fill="#fff" stroke="#000" style="stroke-width:2px"/><text x="393" y="29" text-anchor="start" style="font:14px Menlo,Monaco,&quot;Courier New&quot;,monospace"><tspan x="393" y="29">website</tspan></text><rect width="79" height="29" x="383" y="312" fill="#fff" stroke="#000" style="stroke-width:2px"/><text x="393" y="331" text-anchor="start" style="font:14px Menlo,Monaco,&quot;Courier New&quot;,monospace"><tspan x="393" y="331">website</tspan></text><line x1="422" x2="422" y1="39" y2="312" fill="none" stroke="#000" style="stroke-width:2px"/><rect width="54" height="29" x="600" y="10" fill="#fff" stroke="#000" style="stroke-width:2px"/><text x="610" y="28" text-anchor="start" style="font:14px Menlo,Monaco,&quot;Courier New&quot;,monospace"><tspan x="610" y="28">User</tspan></text><rect width="54" height="29" x="600" y="312" fill="#fff" stroke="#000" style="stroke-width:2px"/><text x="610" y="330" text-anchor="start" style="font:14px Menlo,Monaco,&quot;Courier New&quot;,monospace"><tspan x="610" y="330">User</tspan></text><line x1="627" x2="627" y1="39" y2="312" fill="none" stroke="#000" style="stroke-width:2px"/><text x="118" y="71" text-anchor="start" style="font:14px Menlo,Monaco,&quot;Courier New&quot;,monospace"><tspan x="118" y="71">[stage: loading, signing: false]</tspan></text><line x1="82" x2="422" y1="76" y2="76" fill="none" stroke="#000" marker-end="url(#markerArrowBlock)" style="stroke-width:2px"/><rect width="145" height="22" x="350" y="91" fill="#fff" stroke="#000" style="stroke-width:2px"/><text x="355" y="108" text-anchor="start" style="font:14px Menlo,Monaco,&quot;Courier New&quot;,monospace"><tspan x="355" y="108">LoadingContainer</tspan></text><text x="432" y="145" text-anchor="start" style="font:14px Menlo,Monaco,&quot;Courier New&quot;,monospace"><tspan x="432" y="145">*press Enter as guest*</tspan></text><line x1="627" x2="422" y1="150" y2="150" fill="none" stroke="#000" marker-end="url(#markerArrowBlock)" style="stroke-width:2px"/><text x="92" y="177" text-anchor="start" style="font:14px Menlo,Monaco,&quot;Courier New&quot;,monospace"><tspan x="92" y="177">{type:[AUTHENTICATE], payload: {null}}</tspan></text><line x1="422" x2="82" y1="182" y2="182" fill="none" stroke="#000" marker-end="url(#markerArrowBlock)" style="stroke-width:2px"/><text x="189" y="209" text-anchor="start" style="font:14px Menlo,Monaco,&quot;Courier New&quot;,monospace"><tspan x="189" y="209">[signing: true]</tspan></text><line x1="82" x2="422" y1="214" y2="214" fill="none" stroke="#000" marker-end="url(#markerArrowBlock)" style="stroke-width:2px"/><rect width="237" height="22" x="304" y="229" fill="#fff" stroke="#000" style="stroke-width:2px"/><text x="309" y="246" text-anchor="start" style="font:14px Menlo,Monaco,&quot;Courier New&quot;,monospace"><tspan x="309" y="246">Spinner in LoadingContainer</tspan></text><rect width="145" height="21" x="10" y="271" fill="#fff" stroke="#000" style="stroke-width:2px"/><text x="15" y="287" text-anchor="start" style="font:14px Menlo,Monaco,&quot;Courier New&quot;,monospace"><tspan x="15" y="287">Start Experience</tspan></text></svg>