<svg xmlns="http://www.w3.org/2000/svg" width="615" height="349" x-original-source="Service-&gt;Service: I exist Unity-&gt;Kernel: Ask for auth headers Kernel-&gt;Kernel: Compute headers\n Kernel-&gt;Unity: Send headers Unity-&gt;Service: Fetch Service-&gt;Unity: Response Unity-&gt;Unity: Transform response data"><defs><marker id="markerArrowBlock" markerHeight="5" markerWidth="5" orient="auto" refX="5" refY="2.5" viewBox="0 0 5 5"><path d="M 0 0 L 5 2.5 L 0 5 z"/></marker><marker id="markerArrowOpen" markerHeight="16" markerWidth="4" orient="auto" refX="9.6" refY="8" viewBox="0 0 9.6 16"><path d="M 9.6,8 1.92,16 0,13.7 5.76,8 0,2.286 1.92,0 9.6,8 z"/></marker></defs><rect width="79" height="31" x="10" y="10" fill="#fff" stroke="#000" style="stroke-width:2px"/><text x="20" y="29" text-anchor="start" style="font:14px Menlo,Monaco,&quot;Courier New&quot;,monospace"><tspan x="20" y="29">Service</tspan></text><rect width="79" height="31" x="10" y="288" fill="#fff" stroke="#000" style="stroke-width:2px"/><text x="20" y="307" text-anchor="start" style="font:14px Menlo,Monaco,&quot;Courier New&quot;,monospace"><tspan x="20" y="307">Service</tspan></text><line x1="49" x2="49" y1="41" y2="288" fill="none" stroke="#000" style="stroke-width:2px"/><rect width="63" height="31" x="117" y="10" fill="#fff" stroke="#000" style="stroke-width:2px"/><text x="127" y="31" text-anchor="start" style="font:14px Menlo,Monaco,&quot;Courier New&quot;,monospace"><tspan x="127" y="31">Unity</tspan></text><rect width="63" height="31" x="117" y="288" fill="#fff" stroke="#000" style="stroke-width:2px"/><text x="127" y="309" text-anchor="start" style="font:14px Menlo,Monaco,&quot;Courier New&quot;,monospace"><tspan x="127" y="309">Unity</tspan></text><line x1="148" x2="148" y1="41" y2="288" fill="none" stroke="#000" style="stroke-width:2px"/><rect width="71" height="31" x="347" y="10" fill="#fff" stroke="#000" style="stroke-width:2px"/><text x="357" y="30" text-anchor="start" style="font:14px Menlo,Monaco,&quot;Courier New&quot;,monospace"><tspan x="357" y="30">Kernel</tspan></text><rect width="71" height="31" x="347" y="288" fill="#fff" stroke="#000" style="stroke-width:2px"/><text x="357" y="308" text-anchor="start" style="font:14px Menlo,Monaco,&quot;Courier New&quot;,monospace"><tspan x="357" y="308">Kernel</tspan></text><line x1="382" x2="382" y1="41" y2="288" fill="none" stroke="#000" style="stroke-width:2px"/><line x1="49" x2="69" y1="61" y2="61" fill="none" stroke="#000" style="stroke-width:2px"/><line x1="69" x2="69" y1="61" y2="74" fill="none" stroke="#000" style="stroke-width:2px"/><line x1="69" x2="49" y1="74" y2="74" fill="none" stroke="#000" marker-end="url(#markerArrowBlock)" style="stroke-width:2px"/><text x="74" y="71" text-anchor="start" style="font:14px Menlo,Monaco,&quot;Courier New&quot;,monospace"><tspan x="74" y="71">I exist</tspan></text><text x="181" y="98" text-anchor="start" style="font:14px Menlo,Monaco,&quot;Courier New&quot;,monospace"><tspan x="181" y="98">Ask for auth headers</tspan></text><line x1="148" x2="382" y1="103" y2="103" fill="none" stroke="#000" marker-end="url(#markerArrowBlock)" style="stroke-width:2px"/><line x1="382" x2="402" y1="118" y2="118" fill="none" stroke="#000" style="stroke-width:2px"/><line x1="402" x2="402" y1="118" y2="152" fill="none" stroke="#000" style="stroke-width:2px"/><line x1="402" x2="382" y1="152" y2="152" fill="none" stroke="#000" marker-end="url(#markerArrowBlock)" style="stroke-width:2px"/><text x="407" y="141" text-anchor="start" style="font:14px Menlo,Monaco,&quot;Courier New&quot;,monospace"><tspan x="407" y="141">Compute headers</tspan></text><text x="215" y="176" text-anchor="start" style="font:14px Menlo,Monaco,&quot;Courier New&quot;,monospace"><tspan x="215" y="176">Send headers</tspan></text><line x1="382" x2="148" y1="181" y2="181" fill="none" stroke="#000" marker-end="url(#markerArrowBlock)" style="stroke-width:2px"/><text x="77" y="205" text-anchor="start" style="font:14px Menlo,Monaco,&quot;Courier New&quot;,monospace"><tspan x="77" y="205">Fetch</tspan></text><line x1="148" x2="49" y1="210" y2="210" fill="none" stroke="#000" marker-end="url(#markerArrowBlock)" style="stroke-width:2px"/><text x="65" y="236" text-anchor="start" style="font:14px Menlo,Monaco,&quot;Courier New&quot;,monospace"><tspan x="65" y="236">Response</tspan></text><line x1="49" x2="148" y1="241" y2="241" fill="none" stroke="#000" marker-end="url(#markerArrowBlock)" style="stroke-width:2px"/><line x1="148" x2="168" y1="256" y2="256" fill="none" stroke="#000" style="stroke-width:2px"/><line x1="168" x2="168" y1="256" y2="273" fill="none" stroke="#000" style="stroke-width:2px"/><line x1="168" x2="148" y1="273" y2="273" fill="none" stroke="#000" marker-end="url(#markerArrowBlock)" style="stroke-width:2px"/><text x="173" y="270" text-anchor="start" style="font:14px Menlo,Monaco,&quot;Courier New&quot;,monospace"><tspan x="173" y="270">Transform response data</tspan></text></svg>