<svg xmlns="http://www.w3.org/2000/svg" xmlns:xlink="http://www.w3.org/1999/xlink" width="240" height="188pt" viewBox="0 0 179.67 188"><g id="graph0" class="graph" transform="scale(1 1) rotate(0) translate(4 184)"><title>G</title><polygon fill="#fff" stroke="transparent" points="-4 4 -4 -184 175.67 -184 175.67 4 -4 4"/><g id="node1" class="node"><title>Back-end requester</title><ellipse cx="85.84" cy="-162" fill="none" stroke="#000" rx="85.67" ry="18"/><text x="85.84" y="-157.8" font-family="Times,serif" font-size="14" text-anchor="middle">Back-end requester</text></g><g id="node2" class="node"><title>Bridge</title><ellipse cx="85.84" cy="-90" fill="none" stroke="#000" rx="37.14" ry="18"/><text x="85.84" y="-85.8" font-family="Times,serif" font-size="14" text-anchor="middle">Bridge</text></g><g id="edge1" class="edge"><title>Back-end requester-&gt;Bridge</title><path fill="none" stroke="#000" d="M85.84,-143.7C85.84,-135.98 85.84,-126.71 85.84,-118.11"/><polygon fill="#000" stroke="#000" points="89.34 -118.1 85.84 -108.1 82.34 -118.1 89.34 -118.1"/></g><g id="node3" class="node"><title>Feature</title><ellipse cx="85.84" cy="-18" fill="none" stroke="#000" rx="39.98" ry="18"/><text x="85.84" y="-13.8" font-family="Times,serif" font-size="14" text-anchor="middle">Feature</text></g><g id="edge2" class="edge"><title>Bridge-&gt;Feature</title><path fill="none" stroke="#000" d="M85.84,-71.7C85.84,-63.98 85.84,-54.71 85.84,-46.11"/><polygon fill="#000" stroke="#000" points="89.34 -46.1 85.84 -36.1 82.34 -46.1 89.34 -46.1"/></g></g></svg>