<svg xmlns="http://www.w3.org/2000/svg" width="508" height="407" x-original-source="Unity-&gt;Kernel: Request something Kernel-&gt;Kernel: Unity interface\ndispatches saga event\n Kernel-&gt;Kernel: Saga event is executed\n Kernel-&gt;Service: Fetch Service-&gt;Kernel: Response Kernel-&gt;Kernel: Transform response data Kernel-&gt;Unity: Send back\ntransformed data"><defs><marker id="markerArrowBlock" markerHeight="5" markerWidth="5" orient="auto" refX="5" refY="2.5" viewBox="0 0 5 5"><path d="M 0 0 L 5 2.5 L 0 5 z"/></marker><marker id="markerArrowOpen" markerHeight="16" markerWidth="4" orient="auto" refX="9.6" refY="8" viewBox="0 0 9.6 16"><path d="M 9.6,8 1.92,16 0,13.7 5.76,8 0,2.286 1.92,0 9.6,8 z"/></marker></defs><rect width="63" height="31" x="10" y="10" fill="#fff" stroke="#000" style="stroke-width:2px"/><text x="20" y="31" text-anchor="start" style="font:14px Menlo,Monaco,&quot;Courier New&quot;,monospace"><tspan x="20" y="31">Unity</tspan></text><rect width="63" height="31" x="10" y="346" fill="#fff" stroke="#000" style="stroke-width:2px"/><text x="20" y="367" text-anchor="start" style="font:14px Menlo,Monaco,&quot;Courier New&quot;,monospace"><tspan x="20" y="367">Unity</tspan></text><line x1="41" x2="41" y1="41" y2="346" fill="none" stroke="#000" style="stroke-width:2px"/><rect width="71" height="31" x="169" y="10" fill="#fff" stroke="#000" style="stroke-width:2px"/><text x="179" y="30" text-anchor="start" style="font:14px Menlo,Monaco,&quot;Courier New&quot;,monospace"><tspan x="179" y="30">Kernel</tspan></text><rect width="71" height="31" x="169" y="346" fill="#fff" stroke="#000" style="stroke-width:2px"/><text x="179" y="366" text-anchor="start" style="font:14px Menlo,Monaco,&quot;Courier New&quot;,monospace"><tspan x="179" y="366">Kernel</tspan></text><line x1="204" x2="204" y1="41" y2="346" fill="none" stroke="#000" style="stroke-width:2px"/><rect width="79" height="31" x="399" y="10" fill="#fff" stroke="#000" style="stroke-width:2px"/><text x="409" y="29" text-anchor="start" style="font:14px Menlo,Monaco,&quot;Courier New&quot;,monospace"><tspan x="409" y="29">Service</tspan></text><rect width="79" height="31" x="399" y="346" fill="#fff" stroke="#000" style="stroke-width:2px"/><text x="409" y="365" text-anchor="start" style="font:14px Menlo,Monaco,&quot;Courier New&quot;,monospace"><tspan x="409" y="365">Service</tspan></text><line x1="438" x2="438" y1="41" y2="346" fill="none" stroke="#000" style="stroke-width:2px"/><text x="51" y="73" text-anchor="start" style="font:14px Menlo,Monaco,&quot;Courier New&quot;,monospace"><tspan x="51" y="73">Request something</tspan></text><line x1="41" x2="204" y1="78" y2="78" fill="none" stroke="#000" marker-end="url(#markerArrowBlock)" style="stroke-width:2px"/><line x1="204" x2="224" y1="93" y2="93" fill="none" stroke="#000" style="stroke-width:2px"/><line x1="224" x2="224" y1="93" y2="144" fill="none" stroke="#000" style="stroke-width:2px"/><line x1="224" x2="204" y1="144" y2="144" fill="none" stroke="#000" marker-end="url(#markerArrowBlock)" style="stroke-width:2px"/><text x="229" y="124" text-anchor="start" style="font:14px Menlo,Monaco,&quot;Courier New&quot;,monospace"><tspan x="229" y="124">Unity interface</tspan><tspan x="229" dy="1.2em">dispatches saga event</tspan></text><line x1="204" x2="224" y1="159" y2="159" fill="none" stroke="#000" style="stroke-width:2px"/><line x1="224" x2="224" y1="159" y2="193" fill="none" stroke="#000" style="stroke-width:2px"/><line x1="224" x2="204" y1="193" y2="193" fill="none" stroke="#000" marker-end="url(#markerArrowBlock)" style="stroke-width:2px"/><text x="229" y="182" text-anchor="start" style="font:14px Menlo,Monaco,&quot;Courier New&quot;,monospace"><tspan x="229" y="182">Saga event is executed</tspan></text><text x="300" y="217" text-anchor="start" style="font:14px Menlo,Monaco,&quot;Courier New&quot;,monospace"><tspan x="300" y="217">Fetch</tspan></text><line x1="204" x2="438" y1="222" y2="222" fill="none" stroke="#000" marker-end="url(#markerArrowBlock)" style="stroke-width:2px"/><text x="287" y="248" text-anchor="start" style="font:14px Menlo,Monaco,&quot;Courier New&quot;,monospace"><tspan x="287" y="248">Response</tspan></text><line x1="438" x2="204" y1="253" y2="253" fill="none" stroke="#000" marker-end="url(#markerArrowBlock)" style="stroke-width:2px"/><line x1="204" x2="224" y1="268" y2="268" fill="none" stroke="#000" style="stroke-width:2px"/><line x1="224" x2="224" y1="268" y2="285" fill="none" stroke="#000" style="stroke-width:2px"/><line x1="224" x2="204" y1="285" y2="285" fill="none" stroke="#000" marker-end="url(#markerArrowBlock)" style="stroke-width:2px"/><text x="229" y="282" text-anchor="start" style="font:14px Menlo,Monaco,&quot;Courier New&quot;,monospace"><tspan x="229" y="282">Transform response data</tspan></text><text x="55" y="309" text-anchor="start" style="font:14px Menlo,Monaco,&quot;Courier New&quot;,monospace"><tspan x="55" y="309">Send back</tspan><tspan x="55" dy="1.2em">transformed data</tspan></text><line x1="204" x2="41" y1="331" y2="331" fill="none" stroke="#000" marker-end="url(#markerArrowBlock)" style="stroke-width:2px"/></svg>