<svg xmlns="http://www.w3.org/2000/svg" xmlns:xlink="http://www.w3.org/1999/xlink" width="292pt" height="260pt" viewBox="0 0 292.07 260"><g id="graph0" class="graph" transform="scale(1 1) rotate(0) translate(4 256)"><title>G</title><polygon fill="#fff" stroke="transparent" points="-4 4 -4 -256 288.07 -256 288.07 4 -4 4"/><g id="node1" class="node"><title>a0</title><polygon fill="none" stroke="#000" points="142.26 -180 44.95 -180 44.95 -144 142.26 -144 142.26 -180"/><text x="93.6" y="-157.8" font-family="Times,serif" font-size="14" text-anchor="middle">HudController</text></g><g id="node2" class="node"><title>so1</title><polygon fill="none" stroke="#000" points="85.31 -108 -.1 -108 -.1 -72 85.31 -72 85.31 -108"/><text x="42.6" y="-85.8" font-family="Times,serif" font-size="14" text-anchor="middle">HUD SO #1</text></g><g id="edge2" class="edge"><title>a0-&gt;so1</title><path fill="none" stroke="#000" d="M81,-143.7C75.01,-135.47 67.73,-125.48 61.13,-116.42"/><polygon fill="#000" stroke="#000" points="63.78 -114.13 55.07 -108.1 58.13 -118.25 63.78 -114.13"/></g><g id="node3" class="node"><title>so2</title><polygon fill="none" stroke="#000" points="188.31 -108 102.9 -108 102.9 -72 188.31 -72 188.31 -108"/><text x="145.6" y="-85.8" font-family="Times,serif" font-size="14" text-anchor="middle">HUD SO #2</text></g><g id="edge3" class="edge"><title>a0-&gt;so2</title><path fill="none" stroke="#000" d="M106.46,-143.7C112.63,-135.39 120.14,-125.28 126.93,-116.14"/><polygon fill="#000" stroke="#000" points="129.74 -118.22 132.9 -108.1 124.13 -114.04 129.74 -118.22"/></g><g id="node5" class="node"><title>ext0</title><polygon fill="none" stroke="#000" points="85.03 -36 4.18 -36 4.18 0 85.03 0 85.03 -36"/><text x="44.6" y="-13.8" font-family="Times,serif" font-size="14" text-anchor="middle">External #1</text></g><g id="edge4" class="edge"><title>so1-&gt;ext0</title><path fill="none" stroke="#000" d="M43.39,-61.67C43.63,-53.05 43.9,-43.79 44.12,-36.1"/><polygon fill="#000" stroke="#000" points="39.89 -61.6 43.1 -71.7 46.88 -61.8 39.89 -61.6"/></g><g id="edge5" class="edge"><title>so2-&gt;ext0</title><path fill="none" stroke="#000" d="M112.47,-66.04C98.45,-56.32 82.38,-45.18 69.41,-36.19"/><polygon fill="#000" stroke="#000" points="110.68 -69.06 120.9 -71.88 114.67 -63.3 110.68 -69.06"/></g><g id="node6" class="node"><title>ext1</title><polygon fill="none" stroke="#000" points="185.03 -36 104.18 -36 104.18 0 185.03 0 185.03 -36"/><text x="144.6" y="-13.8" font-family="Times,serif" font-size="14" text-anchor="middle">External #2</text></g><g id="edge6" class="edge"><title>so2-&gt;ext1</title><path fill="none" stroke="#000" d="M145.21,-61.67C145.09,-53.05 144.96,-43.79 144.85,-36.1"/><polygon fill="#000" stroke="#000" points="141.71 -61.75 145.36 -71.7 148.71 -61.65 141.71 -61.75"/></g><g id="node7" class="node"><title>ext2</title><polygon fill="none" stroke="#000" points="284.03 -36 203.18 -36 203.18 0 284.03 0 284.03 -36"/><text x="243.6" y="-13.8" font-family="Times,serif" font-size="14" text-anchor="middle">External #3</text></g><g id="edge7" class="edge"><title>so2-&gt;ext2</title><path fill="none" stroke="#000" d="M177.75,-66.04C191.36,-56.32 206.95,-45.18 219.54,-36.19"/><polygon fill="#000" stroke="#000" points="175.68 -63.22 169.58 -71.88 179.75 -68.91 175.68 -63.22"/></g><g id="node4" class="node"><title>start</title><polygon fill="none" stroke="#000" points="120.69 -252 70.52 -252 66.52 -248 66.52 -216 116.69 -216 120.69 -220 120.69 -252"/><polyline fill="none" stroke="#000" points="116.69 -248 66.52 -248"/><polyline fill="none" stroke="#000" points="116.69 -248 116.69 -216"/><polyline fill="none" stroke="#000" points="116.69 -248 120.69 -252"/><text x="93.6" y="-229.8" font-family="Times,serif" font-size="14" text-anchor="middle">Kernel</text></g><g id="edge1" class="edge"><title>start-&gt;a0</title><path fill="none" stroke="#000" d="M93.6,-215.7C93.6,-207.98 93.6,-198.71 93.6,-190.11"/><polygon fill="#000" stroke="#000" points="97.1 -190.1 93.6 -180.1 90.1 -190.1 97.1 -190.1"/></g></g></svg>