<svg xmlns="http://www.w3.org/2000/svg" xmlns:xlink="http://www.w3.org/1999/xlink" width="380pt" height="332pt" viewBox="0 0 379.64 332"><g id="graph0" class="graph" transform="scale(1 1) rotate(0) translate(4 328)"><title>G</title><polygon fill="#fff" stroke="transparent" points="-4 4 -4 -328 375.64 -328 375.64 4 -4 4"/><g id="node1" class="node"><title>start</title><polygon fill="none" stroke="#000" points="212.91 -324 162.73 -324 158.73 -320 158.73 -288 208.91 -288 212.91 -292 212.91 -324"/><polyline fill="none" stroke="#000" points="208.91 -320 158.73 -320"/><polyline fill="none" stroke="#000" points="208.91 -320 208.91 -288"/><polyline fill="none" stroke="#000" points="208.91 -320 212.91 -324"/><text x="185.82" y="-301.8" font-family="Times,serif" font-size="14" text-anchor="middle">Kernel</text></g><g id="node2" class="node"><title>a0</title><polygon fill="none" stroke="#000" points="229.74 -252 141.9 -252 141.9 -216 229.74 -216 229.74 -252"/><text x="185.82" y="-229.8" font-family="Times,serif" font-size="14" text-anchor="middle">HUD Bridge</text></g><g id="edge1" class="edge"><title>start-&gt;a0</title><path fill="none" stroke="#000" d="M185.82,-287.7C185.82,-279.98 185.82,-270.71 185.82,-262.11"/><polygon fill="#000" stroke="#000" points="189.32 -262.1 185.82 -252.1 182.32 -262.1 189.32 -262.1"/></g><g id="node3" class="node"><title>a1</title><polygon fill="none" stroke="#000" points="231.9 -180 139.74 -180 139.74 -144 231.9 -144 231.9 -180"/><text x="185.82" y="-157.8" font-family="Times,serif" font-size="14" text-anchor="middle">HUD Factory</text></g><g id="edge2" class="edge"><title>a0-&gt;a1</title><path fill="none" stroke="#000" d="M185.82,-215.7C185.82,-207.98 185.82,-198.71 185.82,-190.11"/><polygon fill="#000" stroke="#000" points="189.32 -190.1 185.82 -180.1 182.32 -190.1 189.32 -190.1"/></g><g id="node4" class="node"><title>a2</title><polygon fill="none" stroke="#000" points="241.31 -108 130.33 -108 130.33 -72 241.31 -72 241.31 -108"/><text x="185.82" y="-85.8" font-family="Times,serif" font-size="14" text-anchor="middle">HUD Composite</text></g><g id="edge3" class="edge"><title>a1-&gt;a2</title><path fill="none" stroke="#000" d="M185.82,-143.7C185.82,-135.98 185.82,-126.71 185.82,-118.11"/><polygon fill="#000" stroke="#000" points="189.32 -118.1 185.82 -108.1 182.32 -118.1 189.32 -118.1"/></g><g id="node5" class="node"><title>e0</title><ellipse cx="55.82" cy="-18" fill="none" stroke="#000" rx="55.64" ry="18"/><text x="55.82" y="-13.8" font-family="Times,serif" font-size="14" text-anchor="middle">External #1</text></g><g id="edge4" class="edge"><title>a2-&gt;e0</title><path fill="none" stroke="#000" d="M145.07,-67.06C124.97,-56.24 101.26,-43.47 83.33,-33.81"/><polygon fill="#000" stroke="#000" points="143.55 -70.22 154.02 -71.88 146.87 -64.05 143.55 -70.22"/></g><g id="node6" class="node"><title>e1</title><ellipse cx="185.82" cy="-18" fill="none" stroke="#000" rx="55.64" ry="18"/><text x="185.82" y="-13.8" font-family="Times,serif" font-size="14" text-anchor="middle">External #2</text></g><g id="edge5" class="edge"><title>a2-&gt;e1</title><path fill="none" stroke="#000" d="M185.82,-61.67C185.82,-53.05 185.82,-43.79 185.82,-36.1"/><polygon fill="#000" stroke="#000" points="182.32 -61.7 185.82 -71.7 189.32 -61.7 182.32 -61.7"/></g><g id="node7" class="node"><title>e2</title><ellipse cx="315.82" cy="-18" fill="none" stroke="#000" rx="55.64" ry="18"/><text x="315.82" y="-13.8" font-family="Times,serif" font-size="14" text-anchor="middle">External #3</text></g><g id="edge6" class="edge"><title>a2-&gt;e2</title><path fill="none" stroke="#000" d="M226.57,-67.06C246.67,-56.24 270.38,-43.47 288.31,-33.81"/><polygon fill="#000" stroke="#000" points="224.77 -64.05 217.62 -71.88 228.09 -70.22 224.77 -64.05"/></g></g></svg>