<svg xmlns="http://www.w3.org/2000/svg" width="994" height="330" x-original-source="participant User_1 participant User_2 participant User_3 participant L1_DAO participant L1_CommitteeUser_1-&gt;L1_DAO: Create vote to add/remove someone from the committee: Vote_1 User_2-&gt;L1_DAO: Vote &quot;Yes&quot; on Vote_1 User_3-&gt;L1_DAO: Vote &quot;Yes&quot; on Vote_1 L1_DAO--&gt;L1_DAO: Vote_1 passed User_1-&gt;L1_DAO: Enact Vote_1 lock L1_DAO-&gt;L1_Committee: Add/Remove someone from the committee"><defs><marker id="markerArrowBlock" markerHeight="5" markerWidth="5" orient="auto" refX="5" refY="2.5" viewBox="0 0 5 5"><path d="M 0 0 L 5 2.5 L 0 5 z"/></marker><marker id="markerArrowOpen" markerHeight="16" markerWidth="4" orient="auto" refX="9.6" refY="8" viewBox="0 0 9.6 16"><path d="M 9.6,8 1.92,16 0,13.7 5.76,8 0,2.286 1.92,0 9.6,8 z"/></marker></defs><rect width="71" height="34" x="10" y="10" fill="#fff" stroke="#000" style="stroke-width:2px"/><text x="20" y="33" text-anchor="start" style="font:14px Menlo,Monaco,&quot;Courier New&quot;,monospace"><tspan x="20" y="33">User_1</tspan></text><rect width="71" height="34" x="10" y="266" fill="#fff" stroke="#000" style="stroke-width:2px"/><text x="20" y="289" text-anchor="start" style="font:14px Menlo,Monaco,&quot;Courier New&quot;,monospace"><tspan x="20" y="289">User_1</tspan></text><line x1="45" x2="45" y1="44" y2="266" fill="none" stroke="#000" style="stroke-width:2px"/><rect width="71" height="34" x="101" y="10" fill="#fff" stroke="#000" style="stroke-width:2px"/><text x="111" y="33" text-anchor="start" style="font:14px Menlo,Monaco,&quot;Courier New&quot;,monospace"><tspan x="111" y="33">User_2</tspan></text><rect width="71" height="34" x="101" y="266" fill="#fff" stroke="#000" style="stroke-width:2px"/><text x="111" y="289" text-anchor="start" style="font:14px Menlo,Monaco,&quot;Courier New&quot;,monospace"><tspan x="111" y="289">User_2</tspan></text><line x1="136" x2="136" y1="44" y2="266" fill="none" stroke="#000" style="stroke-width:2px"/><rect width="71" height="34" x="192" y="10" fill="#fff" stroke="#000" style="stroke-width:2px"/><text x="202" y="33" text-anchor="start" style="font:14px Menlo,Monaco,&quot;Courier New&quot;,monospace"><tspan x="202" y="33">User_3</tspan></text><rect width="71" height="34" x="192" y="266" fill="#fff" stroke="#000" style="stroke-width:2px"/><text x="202" y="289" text-anchor="start" style="font:14px Menlo,Monaco,&quot;Courier New&quot;,monospace"><tspan x="202" y="289">User_3</tspan></text><line x1="227" x2="227" y1="44" y2="266" fill="none" stroke="#000" style="stroke-width:2px"/><rect width="71" height="34" x="536" y="10" fill="#fff" stroke="#000" style="stroke-width:2px"/><text x="546" y="33" text-anchor="start" style="font:14px Menlo,Monaco,&quot;Courier New&quot;,monospace"><tspan x="546" y="33">L1_DAO</tspan></text><rect width="71" height="34" x="536" y="266" fill="#fff" stroke="#000" style="stroke-width:2px"/><text x="546" y="289" text-anchor="start" style="font:14px Menlo,Monaco,&quot;Courier New&quot;,monospace"><tspan x="546" y="289">L1_DAO</tspan></text><line x1="571" x2="571" y1="44" y2="266" fill="none" stroke="#000" style="stroke-width:2px"/><rect width="122" height="34" x="842" y="10" fill="#fff" stroke="#000" style="stroke-width:2px"/><text x="852" y="34" text-anchor="start" style="font:14px Menlo,Monaco,&quot;Courier New&quot;,monospace"><tspan x="852" y="34">L1_Committee</tspan></text><rect width="122" height="34" x="842" y="266" fill="#fff" stroke="#000" style="stroke-width:2px"/><text x="852" y="290" text-anchor="start" style="font:14px Menlo,Monaco,&quot;Courier New&quot;,monospace"><tspan x="852" y="290">L1_Committee</tspan></text><line x1="903" x2="903" y1="44" y2="266" fill="none" stroke="#000" style="stroke-width:2px"/><text x="55" y="78" text-anchor="start" style="font:14px Menlo,Monaco,&quot;Courier New&quot;,monospace"><tspan x="55" y="78">Create vote to add/remove someone from the committee: Vote_1</tspan></text><line x1="45" x2="571" y1="83" y2="83" fill="none" stroke="#000" marker-end="url(#markerArrowBlock)" style="stroke-width:2px"/><text x="269" y="112" text-anchor="start" style="font:14px Menlo,Monaco,&quot;Courier New&quot;,monospace"><tspan x="269" y="112">Vote &quot;Yes&quot; on Vote_1</tspan></text><line x1="136" x2="571" y1="117" y2="117" fill="none" stroke="#000" marker-end="url(#markerArrowBlock)" style="stroke-width:2px"/><text x="315" y="146" text-anchor="start" style="font:14px Menlo,Monaco,&quot;Courier New&quot;,monospace"><tspan x="315" y="146">Vote &quot;Yes&quot; on Vote_1</tspan></text><line x1="227" x2="571" y1="151" y2="151" fill="none" stroke="#000" marker-end="url(#markerArrowBlock)" style="stroke-width:2px"/><line x1="571" x2="591" y1="166" y2="166" fill="none" stroke="#000" stroke-dasharray="6 2" style="stroke-width:2px"/><line x1="591" x2="591" y1="166" y2="185" fill="none" stroke="#000" stroke-dasharray="6 2" style="stroke-width:2px"/><line x1="591" x2="571" y1="185" y2="185" fill="none" stroke="#000" stroke-dasharray="6 2" marker-end="url(#markerArrowBlock)" style="stroke-width:2px"/><text x="596" y="182" text-anchor="start" style="font:14px Menlo,Monaco,&quot;Courier New&quot;,monospace"><tspan x="596" y="182">Vote_1 passed</tspan></text><text x="236" y="214" text-anchor="start" style="font:14px Menlo,Monaco,&quot;Courier New&quot;,monospace"><tspan x="236" y="214">Enact Vote_1 lock</tspan></text><line x1="45" x2="571" y1="219" y2="219" fill="none" stroke="#000" marker-end="url(#markerArrowBlock)" style="stroke-width:2px"/><text x="581" y="246" text-anchor="start" style="font:14px Menlo,Monaco,&quot;Courier New&quot;,monospace"><tspan x="581" y="246">Add/Remove someone from the committee</tspan></text><line x1="571" x2="903" y1="251" y2="251" fill="none" stroke="#000" marker-end="url(#markerArrowBlock)" style="stroke-width:2px"/></svg>