<svg xmlns="http://www.w3.org/2000/svg" xmlns:xlink="http://www.w3.org/1999/xlink" width="403pt" height="439pt" viewBox="0 0 403 439"><g id="graph0" class="graph" transform="scale(1 1) rotate(0) translate(4 435)"><polygon fill="#fff" stroke="transparent" points="-4 4 -4 -435 399 -435 399 4 -4 4"/><g id="clust2" class="cluster"><title>clusterL2</title><polygon fill="none" stroke="#00f" points="8 -8 8 -248 387 -248 387 -8 8 -8"/><text x="197.5" y="-235" fill="gray" font-family="arial" font-size="10" text-anchor="middle">L2 Main chain</text></g><g id="clust1" class="cluster"><title>clusterL1</title><polygon fill="none" stroke="green" points="135 -267 135 -423 246 -423 246 -267 135 -267"/><text x="190.5" y="-410" fill="gray" font-family="arial" font-size="10" text-anchor="middle">L1 Ethereum</text></g><g id="node1" class="node"><title>bridge_l1</title><path fill="none" stroke="#000" d="M189.29,-311C189.29,-311 154.71,-311 154.71,-311 148.71,-311 142.71,-305 142.71,-299 142.71,-299 142.71,-287 142.71,-287 142.71,-281 148.71,-275 154.71,-275 154.71,-275 189.29,-275 189.29,-275 195.29,-275 201.29,-281 201.29,-287 201.29,-287 201.29,-299 201.29,-299 201.29,-305 195.29,-311 189.29,-311"/><text x="172" y="-290" font-family="arial" font-size="10" text-anchor="middle">Bridge L1</text></g><g id="node3" class="node"><title>bridge_l2</title><path fill="none" stroke="#000" d="M188.68,-220C188.68,-220 155.32,-220 155.32,-220 149.32,-220 143.32,-214 143.32,-208 143.32,-208 143.32,-196 143.32,-196 143.32,-190 149.32,-184 155.32,-184 155.32,-184 188.68,-184 188.68,-184 194.68,-184 200.68,-190 200.68,-196 200.68,-196 200.68,-208 200.68,-208 200.68,-214 194.68,-220 188.68,-220"/><text x="172" y="-199" font-family="arial" font-size="10" text-anchor="middle">bridge L2</text></g><g id="edge7" class="edge"><title>bridge_l1-&gt;bridge_l2</title><path fill="none" stroke="#00f" d="M172,-274.84C172,-262.28 172,-244.98 172,-230.5"/><polygon fill="#00f" stroke="#00f" points="175.5 -230.11 172 -220.11 168.5 -230.11 175.5 -230.11"/></g><g id="node2" class="node"><title>dao</title><path fill="none" stroke="#000" d="M185,-395C185,-395 155,-395 155,-395 149,-395 143,-389 143,-383 143,-383 143,-371 143,-371 143,-365 149,-359 155,-359 155,-359 185,-359 185,-359 191,-359 197,-365 197,-371 197,-371 197,-383 197,-383 197,-389 191,-395 185,-395"/><text x="170" y="-374" font-family="arial" font-size="10" text-anchor="middle">DAO</text></g><g id="edge1" class="edge"><title>dao-&gt;bridge_l1</title><path fill="none" stroke="green" d="M170.42,-358.61C170.69,-347.77 171.03,-333.6 171.33,-321.29"/><polygon fill="green" stroke="green" points="174.84 -321.17 171.58 -311.08 167.84 -321 174.84 -321.17"/><text x="209.35" y="-332" fill="green" font-family="arial" font-size="10" text-anchor="middle">Manage entity</text></g><g id="edge8" class="edge"><title>bridge_l2-&gt;bridge_l1</title><path fill="none" stroke="#00f" d="M172,-220.11C172,-232.65 172,-249.95 172,-264.44"/><polygon fill="#00f" stroke="#00f" points="168.5 -264.84 172 -274.84 175.5 -264.84 168.5 -264.84"/></g><g id="node4" class="node"><title>entity</title><path fill="none" stroke="#000" d="M187,-136C187,-136 157,-136 157,-136 151,-136 145,-130 145,-124 145,-124 145,-112 145,-112 145,-106 151,-100 157,-100 157,-100 187,-100 187,-100 193,-100 199,-106 199,-112 199,-112 199,-124 199,-124 199,-130 193,-136 187,-136"/><text x="172" y="-115" font-family="arial" font-size="10" text-anchor="middle">Entity</text></g><g id="edge2" class="edge"><title>bridge_l2-&gt;entity</title><path fill="none" stroke="#00f" d="M172,-183.61C172,-172.77 172,-158.6 172,-146.29"/><polygon fill="#00f" stroke="#00f" points="175.5 -146.08 172 -136.08 168.5 -146.08 175.5 -146.08"/><text x="210.35" y="-157" fill="#00f" font-family="arial" font-size="10" text-anchor="middle">Manage entity</text></g><g id="node5" class="node"><title>collection_1</title><path fill="none" stroke="#000" d="M77.79,-52C77.79,-52 28.21,-52 28.21,-52 22.21,-52 16.21,-46 16.21,-40 16.21,-40 16.21,-28 16.21,-28 16.21,-22 22.21,-16 28.21,-16 28.21,-16 77.79,-16 77.79,-16 83.79,-16 89.79,-22 89.79,-28 89.79,-28 89.79,-40 89.79,-40 89.79,-46 83.79,-52 77.79,-52"/><text x="53" y="-31" font-family="arial" font-size="10" text-anchor="middle">Collection L2</text></g><g id="edge3" class="edge"><title>entity-&gt;collection_1</title><path fill="none" stroke="#00f" d="M144.98,-117.8C116.46,-116.99 72.69,-110.74 51.09,-82 46.87,-76.39 45.71,-69.24 46.01,-62.22"/><polygon fill="#00f" stroke="#00f" points="49.49 -62.61 47.34 -52.23 42.55 -61.69 49.49 -62.61"/><text x="85.45" y="-73" fill="#00f" font-family="arial" font-size="10" text-anchor="middle">approve/reject</text></g><g id="node6" class="node"><title>collection_2</title><path fill="none" stroke="#000" d="M169.79,-52C169.79,-52 120.21,-52 120.21,-52 114.21,-52 108.21,-46 108.21,-40 108.21,-40 108.21,-28 108.21,-28 108.21,-22 114.21,-16 120.21,-16 120.21,-16 169.79,-16 169.79,-16 175.79,-16 181.79,-22 181.79,-28 181.79,-28 181.79,-40 181.79,-40 181.79,-46 175.79,-52 169.79,-52"/><text x="145" y="-31" font-family="arial" font-size="10" text-anchor="middle">Collection L2</text></g><g id="edge4" class="edge"><title>entity-&gt;collection_2</title><path fill="none" stroke="#00f" d="M144.77,-102.02C137.71,-96.69 131,-89.99 127.09,-82 123.95,-75.57 124.66,-68.44 127.07,-61.71"/><polygon fill="#00f" stroke="#00f" points="130.42 -62.82 131.57 -52.28 124.11 -59.8 130.42 -62.82"/><text x="161.45" y="-73" fill="#00f" font-family="arial" font-size="10" text-anchor="middle">approve/reject</text></g><g id="node7" class="node"><title>collection_3</title><path fill="none" stroke="#000" d="M261.79,-52C261.79,-52 212.21,-52 212.21,-52 206.21,-52 200.21,-46 200.21,-40 200.21,-40 200.21,-28 200.21,-28 200.21,-22 206.21,-16 212.21,-16 212.21,-16 261.79,-16 261.79,-16 267.79,-16 273.79,-22 273.79,-28 273.79,-28 273.79,-40 273.79,-40 273.79,-46 267.79,-52 261.79,-52"/><text x="237" y="-31" font-family="arial" font-size="10" text-anchor="middle">Collection L2</text></g><g id="edge5" class="edge"><title>entity-&gt;collection_3</title><path fill="none" stroke="#00f" d="M185.78,-99.61C194.89,-88.12 206.98,-72.87 217.12,-60.07"/><polygon fill="#00f" stroke="#00f" points="219.99 -62.09 223.46 -52.08 214.5 -57.75 219.99 -62.09"/><text x="242.45" y="-73" fill="#00f" font-family="arial" font-size="10" text-anchor="middle">approve/reject</text></g><g id="node8" class="node"><title>collection_4</title><path fill="none" stroke="#000" d="M353.79,-52C353.79,-52 304.21,-52 304.21,-52 298.21,-52 292.21,-46 292.21,-40 292.21,-40 292.21,-28 292.21,-28 292.21,-22 298.21,-16 304.21,-16 304.21,-16 353.79,-16 353.79,-16 359.79,-16 365.79,-22 365.79,-28 365.79,-28 365.79,-40 365.79,-40 365.79,-46 359.79,-52 353.79,-52"/><text x="329" y="-31" font-family="arial" font-size="10" text-anchor="middle">Collection L2</text></g><g id="edge6" class="edge"><title>entity-&gt;collection_4</title><path fill="none" stroke="#00f" d="M199.46,-111.89C222.44,-106.77 255.47,-97.4 281,-82 290.74,-76.13 300.02,-67.91 307.78,-59.99"/><polygon fill="#00f" stroke="#00f" points="310.73 -61.96 315 -52.26 305.61 -57.18 310.73 -61.96"/><text x="329.45" y="-73" fill="#00f" font-family="arial" font-size="10" text-anchor="middle">approve/reject</text></g></g></svg>