<svg xmlns="http://www.w3.org/2000/svg" width="1228" height="400" x-original-source="participant User_1 participant User_2 participant User_3 participant L1_DAO participant L1_Bridge participant L2_Bridge participant L2_Collection_1User_1-&gt;L1_DAO: Create vote to approve/reject Collection_1: Vote_1 User_2-&gt;L1_DAO: Vote &quot;Yes&quot; on Vote_1 User_3-&gt;L1_DAO: Vote &quot;Yes&quot; on Vote_1 L1_DAO--&gt;L1_DAO: Vote_1 passed User_1-&gt;L1_DAO: Enact Vote_1 lock L1_DAO-&gt;L1_Bridge: Approve/Reject Collection_1 L1_Bridge-&gt;L2_Bridge: Approve/Reject Collection_1 L2_Bridge-&gt;L2_Collection_1: Approve/Reject"><defs><marker id="markerArrowBlock" markerHeight="5" markerWidth="5" orient="auto" refX="5" refY="2.5" viewBox="0 0 5 5"><path d="M 0 0 L 5 2.5 L 0 5 z"/></marker><marker id="markerArrowOpen" markerHeight="16" markerWidth="4" orient="auto" refX="9.6" refY="8" viewBox="0 0 9.6 16"><path d="M 9.6,8 1.92,16 0,13.7 5.76,8 0,2.286 1.92,0 9.6,8 z"/></marker></defs><rect width="71" height="34" x="10" y="10" fill="#fff" stroke="#000" style="stroke-width:2px"/><text x="20" y="33" text-anchor="start" style="font:14px Menlo,Monaco,&quot;Courier New&quot;,monospace"><tspan x="20" y="33">User_1</tspan></text><rect width="71" height="34" x="10" y="336" fill="#fff" stroke="#000" style="stroke-width:2px"/><text x="20" y="359" text-anchor="start" style="font:14px Menlo,Monaco,&quot;Courier New&quot;,monospace"><tspan x="20" y="359">User_1</tspan></text><line x1="45" x2="45" y1="44" y2="336" fill="none" stroke="#000" style="stroke-width:2px"/><rect width="71" height="34" x="101" y="10" fill="#fff" stroke="#000" style="stroke-width:2px"/><text x="111" y="33" text-anchor="start" style="font:14px Menlo,Monaco,&quot;Courier New&quot;,monospace"><tspan x="111" y="33">User_2</tspan></text><rect width="71" height="34" x="101" y="336" fill="#fff" stroke="#000" style="stroke-width:2px"/><text x="111" y="359" text-anchor="start" style="font:14px Menlo,Monaco,&quot;Courier New&quot;,monospace"><tspan x="111" y="359">User_2</tspan></text><line x1="136" x2="136" y1="44" y2="336" fill="none" stroke="#000" style="stroke-width:2px"/><rect width="71" height="34" x="192" y="10" fill="#fff" stroke="#000" style="stroke-width:2px"/><text x="202" y="33" text-anchor="start" style="font:14px Menlo,Monaco,&quot;Courier New&quot;,monospace"><tspan x="202" y="33">User_3</tspan></text><rect width="71" height="34" x="192" y="336" fill="#fff" stroke="#000" style="stroke-width:2px"/><text x="202" y="359" text-anchor="start" style="font:14px Menlo,Monaco,&quot;Courier New&quot;,monospace"><tspan x="202" y="359">User_3</tspan></text><line x1="227" x2="227" y1="44" y2="336" fill="none" stroke="#000" style="stroke-width:2px"/><rect width="71" height="34" x="452" y="10" fill="#fff" stroke="#000" style="stroke-width:2px"/><text x="462" y="33" text-anchor="start" style="font:14px Menlo,Monaco,&quot;Courier New&quot;,monospace"><tspan x="462" y="33">L1_DAO</tspan></text><rect width="71" height="34" x="452" y="336" fill="#fff" stroke="#000" style="stroke-width:2px"/><text x="462" y="359" text-anchor="start" style="font:14px Menlo,Monaco,&quot;Courier New&quot;,monospace"><tspan x="462" y="359">L1_DAO</tspan></text><line x1="487" x2="487" y1="44" y2="336" fill="none" stroke="#000" style="stroke-width:2px"/><rect width="96" height="34" x="687" y="10" fill="#fff" stroke="#000" style="stroke-width:2px"/><text x="697" y="34" text-anchor="start" style="font:14px Menlo,Monaco,&quot;Courier New&quot;,monospace"><tspan x="697" y="34">L1_Bridge</tspan></text><rect width="96" height="34" x="687" y="336" fill="#fff" stroke="#000" style="stroke-width:2px"/><text x="697" y="360" text-anchor="start" style="font:14px Menlo,Monaco,&quot;Courier New&quot;,monospace"><tspan x="697" y="360">L1_Bridge</tspan></text><line x1="735" x2="735" y1="44" y2="336" fill="none" stroke="#000" style="stroke-width:2px"/><rect width="96" height="34" x="935" y="10" fill="#fff" stroke="#000" style="stroke-width:2px"/><text x="945" y="34" text-anchor="start" style="font:14px Menlo,Monaco,&quot;Courier New&quot;,monospace"><tspan x="945" y="34">L2_Bridge</tspan></text><rect width="96" height="34" x="935" y="336" fill="#fff" stroke="#000" style="stroke-width:2px"/><text x="945" y="360" text-anchor="start" style="font:14px Menlo,Monaco,&quot;Courier New&quot;,monospace"><tspan x="945" y="360">L2_Bridge</tspan></text><line x1="983" x2="983" y1="44" y2="336" fill="none" stroke="#000" style="stroke-width:2px"/><rect width="147" height="34" x="1051" y="10" fill="#fff" stroke="#000" style="stroke-width:2px"/><text x="1061" y="34" text-anchor="start" style="font:14px Menlo,Monaco,&quot;Courier New&quot;,monospace"><tspan x="1061" y="34">L2_Collection_1</tspan></text><rect width="147" height="34" x="1051" y="336" fill="#fff" stroke="#000" style="stroke-width:2px"/><text x="1061" y="360" text-anchor="start" style="font:14px Menlo,Monaco,&quot;Courier New&quot;,monospace"><tspan x="1061" y="360">L2_Collection_1</tspan></text><line x1="1124" x2="1124" y1="44" y2="336" fill="none" stroke="#000" style="stroke-width:2px"/><text x="55" y="78" text-anchor="start" style="font:14px Menlo,Monaco,&quot;Courier New&quot;,monospace"><tspan x="55" y="78">Create vote to approve/reject Collection_1: Vote_1</tspan></text><line x1="45" x2="487" y1="83" y2="83" fill="none" stroke="#000" marker-end="url(#markerArrowBlock)" style="stroke-width:2px"/><text x="227" y="112" text-anchor="start" style="font:14px Menlo,Monaco,&quot;Courier New&quot;,monospace"><tspan x="227" y="112">Vote &quot;Yes&quot; on Vote_1</tspan></text><line x1="136" x2="487" y1="117" y2="117" fill="none" stroke="#000" marker-end="url(#markerArrowBlock)" style="stroke-width:2px"/><text x="273" y="146" text-anchor="start" style="font:14px Menlo,Monaco,&quot;Courier New&quot;,monospace"><tspan x="273" y="146">Vote &quot;Yes&quot; on Vote_1</tspan></text><line x1="227" x2="487" y1="151" y2="151" fill="none" stroke="#000" marker-end="url(#markerArrowBlock)" style="stroke-width:2px"/><line x1="487" x2="507" y1="166" y2="166" fill="none" stroke="#000" stroke-dasharray="6 2" style="stroke-width:2px"/><line x1="507" x2="507" y1="166" y2="185" fill="none" stroke="#000" stroke-dasharray="6 2" style="stroke-width:2px"/><line x1="507" x2="487" y1="185" y2="185" fill="none" stroke="#000" stroke-dasharray="6 2" marker-end="url(#markerArrowBlock)" style="stroke-width:2px"/><text x="512" y="182" text-anchor="start" style="font:14px Menlo,Monaco,&quot;Courier New&quot;,monospace"><tspan x="512" y="182">Vote_1 passed</tspan></text><text x="194" y="214" text-anchor="start" style="font:14px Menlo,Monaco,&quot;Courier New&quot;,monospace"><tspan x="194" y="214">Enact Vote_1 lock</tspan></text><line x1="45" x2="487" y1="219" y2="219" fill="none" stroke="#000" marker-end="url(#markerArrowBlock)" style="stroke-width:2px"/><text x="497" y="248" text-anchor="start" style="font:14px Menlo,Monaco,&quot;Courier New&quot;,monospace"><tspan x="497" y="248">Approve/Reject Collection_1</tspan></text><line x1="487" x2="735" y1="253" y2="253" fill="none" stroke="#000" marker-end="url(#markerArrowBlock)" style="stroke-width:2px"/><text x="745" y="282" text-anchor="start" style="font:14px Menlo,Monaco,&quot;Courier New&quot;,monospace"><tspan x="745" y="282">Approve/Reject Collection_1</tspan></text><line x1="735" x2="983" y1="287" y2="287" fill="none" stroke="#000" marker-end="url(#markerArrowBlock)" style="stroke-width:2px"/><text x="994" y="316" text-anchor="start" style="font:14px Menlo,Monaco,&quot;Courier New&quot;,monospace"><tspan x="994" y="316">Approve/Reject</tspan></text><line x1="983" x2="1124" y1="321" y2="321" fill="none" stroke="#000" marker-end="url(#markerArrowBlock)" style="stroke-width:2px"/></svg>