<svg xmlns="http://www.w3.org/2000/svg" width="604" height="255" x-original-source="participant Creator participant TP_Contract participant Builder_UI participant Builder_ServerCreator-&gt;Builder_UI: Get all the items Builder_UI -&gt; Builder_Server: Fetch items Builder_UI -&gt; Builder_UI: Generate merkle tree Creator-&gt;Builder_Server: Send a signed message to review x items"><defs><marker id="markerArrowBlock" markerHeight="5" markerWidth="5" orient="auto" refX="5" refY="2.5" viewBox="0 0 5 5"><path d="M 0 0 L 5 2.5 L 0 5 z"/></marker><marker id="markerArrowOpen" markerHeight="16" markerWidth="4" orient="auto" refX="9.6" refY="8" viewBox="0 0 9.6 16"><path d="M 9.6,8 1.92,16 0,13.7 5.76,8 0,2.286 1.92,0 9.6,8 z"/></marker></defs><rect width="80" height="34" x="10" y="10" fill="#fff" stroke="#000" style="stroke-width:2px"/><text x="20" y="32" text-anchor="start" style="font:14px Menlo,Monaco,&quot;Courier New&quot;,monospace"><tspan x="20" y="32">Creator</tspan></text><rect width="80" height="34" x="10" y="191" fill="#fff" stroke="#000" style="stroke-width:2px"/><text x="20" y="213" text-anchor="start" style="font:14px Menlo,Monaco,&quot;Courier New&quot;,monospace"><tspan x="20" y="213">Creator</tspan></text><line x1="50" x2="50" y1="44" y2="191" fill="none" stroke="#000" style="stroke-width:2px"/><rect width="113" height="34" x="110" y="10" fill="#fff" stroke="#000" style="stroke-width:2px"/><text x="120" y="33" text-anchor="start" style="font:14px Menlo,Monaco,&quot;Courier New&quot;,monospace"><tspan x="120" y="33">TP_Contract</tspan></text><rect width="113" height="34" x="110" y="191" fill="#fff" stroke="#000" style="stroke-width:2px"/><text x="120" y="214" text-anchor="start" style="font:14px Menlo,Monaco,&quot;Courier New&quot;,monospace"><tspan x="120" y="214">TP_Contract</tspan></text><line x1="166" x2="166" y1="44" y2="191" fill="none" stroke="#000" style="stroke-width:2px"/><rect width="105" height="34" x="243" y="10" fill="#fff" stroke="#000" style="stroke-width:2px"/><text x="253" y="34" text-anchor="start" style="font:14px Menlo,Monaco,&quot;Courier New&quot;,monospace"><tspan x="253" y="34">Builder_UI</tspan></text><rect width="105" height="34" x="243" y="191" fill="#fff" stroke="#000" style="stroke-width:2px"/><text x="253" y="215" text-anchor="start" style="font:14px Menlo,Monaco,&quot;Courier New&quot;,monospace"><tspan x="253" y="215">Builder_UI</tspan></text><line x1="295" x2="295" y1="44" y2="191" fill="none" stroke="#000" style="stroke-width:2px"/><rect width="139" height="34" x="435" y="10" fill="#fff" stroke="#000" style="stroke-width:2px"/><text x="445" y="34" text-anchor="start" style="font:14px Menlo,Monaco,&quot;Courier New&quot;,monospace"><tspan x="445" y="34">Builder_Server</tspan></text><rect width="139" height="34" x="435" y="191" fill="#fff" stroke="#000" style="stroke-width:2px"/><text x="445" y="215" text-anchor="start" style="font:14px Menlo,Monaco,&quot;Courier New&quot;,monospace"><tspan x="445" y="215">Builder_Server</tspan></text><line x1="504" x2="504" y1="44" y2="191" fill="none" stroke="#000" style="stroke-width:2px"/><text x="100" y="75" text-anchor="start" style="font:14px Menlo,Monaco,&quot;Courier New&quot;,monospace"><tspan x="100" y="75">Get all the items</tspan></text><line x1="50" x2="295" y1="80" y2="80" fill="none" stroke="#000" marker-end="url(#markerArrowBlock)" style="stroke-width:2px"/><text x="353" y="106" text-anchor="start" style="font:14px Menlo,Monaco,&quot;Courier New&quot;,monospace"><tspan x="353" y="106">Fetch items</tspan></text><line x1="295" x2="504" y1="111" y2="111" fill="none" stroke="#000" marker-end="url(#markerArrowBlock)" style="stroke-width:2px"/><line x1="295" x2="315" y1="126" y2="126" fill="none" stroke="#000" style="stroke-width:2px"/><line x1="315" x2="315" y1="126" y2="142" fill="none" stroke="#000" style="stroke-width:2px"/><line x1="315" x2="295" y1="142" y2="142" fill="none" stroke="#000" marker-end="url(#markerArrowBlock)" style="stroke-width:2px"/><text x="320" y="139" text-anchor="start" style="font:14px Menlo,Monaco,&quot;Courier New&quot;,monospace"><tspan x="320" y="139">Generate merkle tree</tspan></text><text x="112" y="171" text-anchor="start" style="font:14px Menlo,Monaco,&quot;Courier New&quot;,monospace"><tspan x="112" y="171">Send a signed message to review x items</tspan></text><line x1="50" x2="504" y1="176" y2="176" fill="none" stroke="#000" marker-end="url(#markerArrowBlock)" style="stroke-width:2px"/></svg>