<svg xmlns="http://www.w3.org/2000/svg" xmlns:xlink="http://www.w3.org/1999/xlink" width="192" height="296" viewBox="0 0 143.74 221.6"><g id="graph0" class="graph" transform="scale(1 1) rotate(0) translate(4 217.6)"><title>G</title><polygon fill="#fff" stroke="transparent" points="-4 4 -4 -217.6 139.74 -217.6 139.74 4 -4 4"/><g id="node1" class="node"><title>HUDFactory</title><polygon fill="none" stroke="#000" points="112.45 -124.8 23.29 -124.8 23.29 -88.8 112.45 -88.8 112.45 -124.8"/><text x="67.87" y="-102.6" font-family="Times,serif" font-size="14" text-anchor="middle">HUDFactory</text></g><g id="node2" class="node"><title>IHUDFactory</title><polygon fill="none" stroke="#000" points="114.61 -213.6 21.13 -213.6 21.13 -177.6 114.61 -177.6 114.61 -213.6"/><text x="67.87" y="-191.4" font-family="Times,serif" font-size="14" text-anchor="middle">IHUDFactory</text></g><g id="edge1" class="edge"><title>HUDFactory-&gt;IHUDFactory</title><path fill="none" stroke="#000" stroke-dasharray="5 2" d="M67.87,-124.95C67.87,-137.08 67.87,-153.58 67.87,-167.48"/><polygon fill="#000" stroke="#000" points="64.37 -167.49 67.87 -177.49 71.37 -167.49 64.37 -167.49"/><text x="100.53" y="-147" font-family="Times,serif" font-size="14" text-anchor="middle">implements</text></g><g id="node3" class="node"><title>HUDDesktopFactory</title><polygon fill="none" stroke="#000" points="135.61 -36 .13 -36 .13 0 135.61 0 135.61 -36"/><text x="67.87" y="-13.8" font-family="Times,serif" font-size="14" text-anchor="middle">HUDDesktopFactory</text></g><g id="edge2" class="edge"><title>HUDDesktopFactory-&gt;HUDFactory</title><path fill="none" stroke="#000" d="M67.87,-36.15C67.87,-48.28 67.87,-64.78 67.87,-78.68"/><polygon fill="#000" stroke="#000" points="64.37 -78.69 67.87 -88.69 71.37 -78.69 64.37 -78.69"/><text x="89.25" y="-58.2" font-family="Times,serif" font-size="14" text-anchor="middle">extends</text></g></g></svg>