<svg xmlns="http://www.w3.org/2000/svg" width="341" height="281" x-original-source="Kernel-&gt;Renderer: Load and show MinimapHUD Kernel-&gt;Renderer: Load SignupHUD Kernel-&gt;Renderer: Load SettingsPanelHUD Kernel-&gt;Renderer: ... Kernel-&gt;Renderer: Show SettingsPanelHUD"><defs><marker id="markerArrowBlock" markerHeight="5" markerWidth="5" orient="auto" refX="5" refY="2.5" viewBox="0 0 5 5"><path d="M 0 0 L 5 2.5 L 0 5 z"/></marker><marker id="markerArrowOpen" markerHeight="16" markerWidth="4" orient="auto" refX="9.6" refY="8" viewBox="0 0 9.6 16"><path d="M 9.6,8 1.92,16 0,13.7 5.76,8 0,2.286 1.92,0 9.6,8 z"/></marker></defs><rect width="71" height="31" x="10" y="10" fill="#fff" stroke="#000" style="stroke-width:2px"/><text x="20" y="31" text-anchor="start" style="font:14px Menlo,Monaco,&quot;Courier New&quot;,monospace"><tspan x="20" y="31">Kernel</tspan></text><rect width="71" height="31" x="10" y="220" fill="#fff" stroke="#000" style="stroke-width:2px"/><text x="20" y="241" text-anchor="start" style="font:14px Menlo,Monaco,&quot;Courier New&quot;,monospace"><tspan x="20" y="241">Kernel</tspan></text><line x1="45" x2="45" y1="41" y2="220" fill="none" stroke="#000" style="stroke-width:2px"/><rect width="88" height="31" x="223" y="10" fill="#fff" stroke="#000" style="stroke-width:2px"/><text x="233" y="31" text-anchor="start" style="font:14px Menlo,Monaco,&quot;Courier New&quot;,monospace"><tspan x="233" y="31">Renderer</tspan></text><rect width="88" height="31" x="223" y="220" fill="#fff" stroke="#000" style="stroke-width:2px"/><text x="233" y="241" text-anchor="start" style="font:14px Menlo,Monaco,&quot;Courier New&quot;,monospace"><tspan x="233" y="241">Renderer</tspan></text><line x1="267" x2="267" y1="41" y2="220" fill="none" stroke="#000" style="stroke-width:2px"/><text x="55" y="75" text-anchor="start" style="font:14px Menlo,Monaco,&quot;Courier New&quot;,monospace"><tspan x="55" y="75">Load and show MinimapHUD</tspan></text><line x1="45" x2="267" y1="80" y2="80" fill="none" stroke="#000" marker-end="url(#markerArrowBlock)" style="stroke-width:2px"/><text x="97" y="109" text-anchor="start" style="font:14px Menlo,Monaco,&quot;Courier New&quot;,monospace"><tspan x="97" y="109">Load SignupHUD</tspan></text><line x1="45" x2="267" y1="114" y2="114" fill="none" stroke="#000" marker-end="url(#markerArrowBlock)" style="stroke-width:2px"/><text x="67" y="143" text-anchor="start" style="font:14px Menlo,Monaco,&quot;Courier New&quot;,monospace"><tspan x="67" y="143">Load SettingsPanelHUD</tspan></text><line x1="45" x2="267" y1="148" y2="148" fill="none" stroke="#000" marker-end="url(#markerArrowBlock)" style="stroke-width:2px"/><text x="143" y="166" text-anchor="start" style="font:14px Menlo,Monaco,&quot;Courier New&quot;,monospace"><tspan x="143" y="166">...</tspan></text><line x1="45" x2="267" y1="171" y2="171" fill="none" stroke="#000" marker-end="url(#markerArrowBlock)" style="stroke-width:2px"/><text x="67" y="200" text-anchor="start" style="font:14px Menlo,Monaco,&quot;Courier New&quot;,monospace"><tspan x="67" y="200">Show SettingsPanelHUD</tspan></text><line x1="45" x2="267" y1="205" y2="205" fill="none" stroke="#000" marker-end="url(#markerArrowBlock)" style="stroke-width:2px"/></svg>