<svg xmlns="http://www.w3.org/2000/svg" width="810" height="461" x-original-source="Kernel-&gt;Renderer: Send catalog JSON\nwith all the assets Renderer-&gt;Renderer: User places any asset into the world Renderer-&gt;Renderer: Map assetId to component id\nin the internal map Renderer-&gt;Kernel: Sends special message to\nreflect the assetId mapping Renderer-&gt;Kernel: Update component with\n{ src:string } using stateful\nmessages. Renderer-&gt;Renderer: Component checks if any assetId\nwas mapped to this component id Renderer-&gt;Renderer: Inject mapped ContentProvider to LoadableShape\nuse scene ContentProvider otherwise"><defs><marker id="markerArrowBlock" markerHeight="5" markerWidth="5" orient="auto" refX="5" refY="2.5" viewBox="0 0 5 5"><path d="M 0 0 L 5 2.5 L 0 5 z"/></marker><marker id="markerArrowOpen" markerHeight="16" markerWidth="4" orient="auto" refX="9.6" refY="8" viewBox="0 0 9.6 16"><path d="M 9.6,8 1.92,16 0,13.7 5.76,8 0,2.286 1.92,0 9.6,8 z"/></marker></defs><rect width="71" height="29" x="10" y="10" fill="#fff" stroke="#000" style="stroke-width:2px"/><text x="20" y="29" text-anchor="start" style="font:14px Menlo,Monaco,&quot;Courier New&quot;,monospace"><tspan x="20" y="29">Kernel</tspan></text><rect width="71" height="29" x="10" y="402" fill="#fff" stroke="#000" style="stroke-width:2px"/><text x="20" y="421" text-anchor="start" style="font:14px Menlo,Monaco,&quot;Courier New&quot;,monospace"><tspan x="20" y="421">Kernel</tspan></text><line x1="45" x2="45" y1="39" y2="402" fill="none" stroke="#000" style="stroke-width:2px"/><rect width="88" height="29" x="265" y="10" fill="#fff" stroke="#000" style="stroke-width:2px"/><text x="275" y="29" text-anchor="start" style="font:14px Menlo,Monaco,&quot;Courier New&quot;,monospace"><tspan x="275" y="29">Renderer</tspan></text><rect width="88" height="29" x="265" y="402" fill="#fff" stroke="#000" style="stroke-width:2px"/><text x="275" y="421" text-anchor="start" style="font:14px Menlo,Monaco,&quot;Courier New&quot;,monospace"><tspan x="275" y="421">Renderer</tspan></text><line x1="309" x2="309" y1="39" y2="402" fill="none" stroke="#000" style="stroke-width:2px"/><text x="97" y="71" text-anchor="start" style="font:14px Menlo,Monaco,&quot;Courier New&quot;,monospace"><tspan x="97" y="71">Send catalog JSON</tspan><tspan x="97" dy="1.2em">with all the assets</tspan></text><line x1="45" x2="309" y1="93" y2="93" fill="none" stroke="#000" marker-end="url(#markerArrowBlock)" style="stroke-width:2px"/><line x1="309" x2="329" y1="108" y2="108" fill="none" stroke="#000" style="stroke-width:2px"/><line x1="329" x2="329" y1="108" y2="125" fill="none" stroke="#000" style="stroke-width:2px"/><line x1="329" x2="309" y1="125" y2="125" fill="none" stroke="#000" marker-end="url(#markerArrowBlock)" style="stroke-width:2px"/><text x="334" y="122" text-anchor="start" style="font:14px Menlo,Monaco,&quot;Courier New&quot;,monospace"><tspan x="334" y="122">User places any asset into the world</tspan></text><line x1="309" x2="329" y1="140" y2="140" fill="none" stroke="#000" style="stroke-width:2px"/><line x1="329" x2="329" y1="140" y2="174" fill="none" stroke="#000" style="stroke-width:2px"/><line x1="329" x2="309" y1="174" y2="174" fill="none" stroke="#000" marker-end="url(#markerArrowBlock)" style="stroke-width:2px"/><text x="334" y="163" text-anchor="start" style="font:14px Menlo,Monaco,&quot;Courier New&quot;,monospace"><tspan x="334" y="163">Map assetId to component id</tspan><tspan x="334" dy="1.2em">in the internal map</tspan></text><text x="63" y="201" text-anchor="start" style="font:14px Menlo,Monaco,&quot;Courier New&quot;,monospace"><tspan x="63" y="201">Sends special message to</tspan><tspan x="63" dy="1.2em">reflect the assetId mapping</tspan></text><line x1="309" x2="45" y1="223" y2="223" fill="none" stroke="#000" marker-end="url(#markerArrowBlock)" style="stroke-width:2px"/><text x="55" y="250" text-anchor="start" style="font:14px Menlo,Monaco,&quot;Courier New&quot;,monospace"><tspan x="55" y="250">Update component with</tspan><tspan x="55" dy="1.2em">{ src:string } using stateful</tspan><tspan x="55" dy="1.2em">messages.</tspan></text><line x1="309" x2="45" y1="289" y2="289" fill="none" stroke="#000" marker-end="url(#markerArrowBlock)" style="stroke-width:2px"/><line x1="309" x2="329" y1="304" y2="304" fill="none" stroke="#000" style="stroke-width:2px"/><line x1="329" x2="329" y1="304" y2="338" fill="none" stroke="#000" style="stroke-width:2px"/><line x1="329" x2="309" y1="338" y2="338" fill="none" stroke="#000" marker-end="url(#markerArrowBlock)" style="stroke-width:2px"/><text x="334" y="327" text-anchor="start" style="font:14px Menlo,Monaco,&quot;Courier New&quot;,monospace"><tspan x="334" y="327">Component checks if any assetId</tspan><tspan x="334" dy="1.2em">was mapped to this component id</tspan></text><line x1="309" x2="329" y1="353" y2="353" fill="none" stroke="#000" style="stroke-width:2px"/><line x1="329" x2="329" y1="353" y2="387" fill="none" stroke="#000" style="stroke-width:2px"/><line x1="329" x2="309" y1="387" y2="387" fill="none" stroke="#000" marker-end="url(#markerArrowBlock)" style="stroke-width:2px"/><text x="334" y="376" text-anchor="start" style="font:14px Menlo,Monaco,&quot;Courier New&quot;,monospace"><tspan x="334" y="376">Inject mapped ContentProvider to LoadableShape</tspan><tspan x="334" dy="1.2em">use scene ContentProvider otherwise</tspan></text></svg>