<svg xmlns="http://www.w3.org/2000/svg" width="805" height="410" x-original-source="Kernel-&gt;Renderer: Send catalog JSON\nwith all the assets Renderer-&gt;Renderer: Maps json info to {assetId, ContentProvider} Kernel-&gt;Kernel: Stateful scene load begins Kernel-&gt;Renderer: Map assetId to component id\nusing special message Kernel-&gt;Renderer: Update component Renderer-&gt;Renderer: Component checks if any assetId\nwas mapped to this component id Renderer-&gt;Renderer: Inject mapped ContentProvider to LoadableShape\nuse scene ContentProvider otherwise"><defs><marker id="markerArrowBlock" markerHeight="5" markerWidth="5" orient="auto" refX="5" refY="2.5" viewBox="0 0 5 5"><path d="M 0 0 L 5 2.5 L 0 5 z"/></marker><marker id="markerArrowOpen" markerHeight="16" markerWidth="4" orient="auto" refX="9.6" refY="8" viewBox="0 0 9.6 16"><path d="M 9.6,8 1.92,16 0,13.7 5.76,8 0,2.286 1.92,0 9.6,8 z"/></marker></defs><rect width="71" height="29" x="10" y="10" fill="#fff" stroke="#000" style="stroke-width:2px"/><text x="20" y="29" text-anchor="start" style="font:14px Menlo,Monaco,&quot;Courier New&quot;,monospace"><tspan x="20" y="29">Kernel</tspan></text><rect width="71" height="29" x="10" y="351" fill="#fff" stroke="#000" style="stroke-width:2px"/><text x="20" y="370" text-anchor="start" style="font:14px Menlo,Monaco,&quot;Courier New&quot;,monospace"><tspan x="20" y="370">Kernel</tspan></text><line x1="45" x2="45" y1="39" y2="351" fill="none" stroke="#000" style="stroke-width:2px"/><rect width="88" height="29" x="260" y="10" fill="#fff" stroke="#000" style="stroke-width:2px"/><text x="270" y="29" text-anchor="start" style="font:14px Menlo,Monaco,&quot;Courier New&quot;,monospace"><tspan x="270" y="29">Renderer</tspan></text><rect width="88" height="29" x="260" y="351" fill="#fff" stroke="#000" style="stroke-width:2px"/><text x="270" y="370" text-anchor="start" style="font:14px Menlo,Monaco,&quot;Courier New&quot;,monospace"><tspan x="270" y="370">Renderer</tspan></text><line x1="304" x2="304" y1="39" y2="351" fill="none" stroke="#000" style="stroke-width:2px"/><text x="94" y="71" text-anchor="start" style="font:14px Menlo,Monaco,&quot;Courier New&quot;,monospace"><tspan x="94" y="71">Send catalog JSON</tspan><tspan x="94" dy="1.2em">with all the assets</tspan></text><line x1="45" x2="304" y1="93" y2="93" fill="none" stroke="#000" marker-end="url(#markerArrowBlock)" style="stroke-width:2px"/><line x1="304" x2="324" y1="108" y2="108" fill="none" stroke="#000" style="stroke-width:2px"/><line x1="324" x2="324" y1="108" y2="125" fill="none" stroke="#000" style="stroke-width:2px"/><line x1="324" x2="304" y1="125" y2="125" fill="none" stroke="#000" marker-end="url(#markerArrowBlock)" style="stroke-width:2px"/><text x="329" y="122" text-anchor="start" style="font:14px Menlo,Monaco,&quot;Courier New&quot;,monospace"><tspan x="329" y="122">Maps json info to {assetId, ContentProvider}</tspan></text><line x1="45" x2="65" y1="140" y2="140" fill="none" stroke="#000" style="stroke-width:2px"/><line x1="65" x2="65" y1="140" y2="157" fill="none" stroke="#000" style="stroke-width:2px"/><line x1="65" x2="45" y1="157" y2="157" fill="none" stroke="#000" marker-end="url(#markerArrowBlock)" style="stroke-width:2px"/><text x="70" y="154" text-anchor="start" style="font:14px Menlo,Monaco,&quot;Courier New&quot;,monospace"><tspan x="70" y="154">Stateful scene load begins</tspan></text><text x="61" y="184" text-anchor="start" style="font:14px Menlo,Monaco,&quot;Courier New&quot;,monospace"><tspan x="61" y="184">Map assetId to component id</tspan><tspan x="61" dy="1.2em">using special message</tspan></text><line x1="45" x2="304" y1="206" y2="206" fill="none" stroke="#000" marker-end="url(#markerArrowBlock)" style="stroke-width:2px"/><text x="107" y="233" text-anchor="start" style="font:14px Menlo,Monaco,&quot;Courier New&quot;,monospace"><tspan x="107" y="233">Update component</tspan></text><line x1="45" x2="304" y1="238" y2="238" fill="none" stroke="#000" marker-end="url(#markerArrowBlock)" style="stroke-width:2px"/><line x1="304" x2="324" y1="253" y2="253" fill="none" stroke="#000" style="stroke-width:2px"/><line x1="324" x2="324" y1="253" y2="287" fill="none" stroke="#000" style="stroke-width:2px"/><line x1="324" x2="304" y1="287" y2="287" fill="none" stroke="#000" marker-end="url(#markerArrowBlock)" style="stroke-width:2px"/><text x="329" y="276" text-anchor="start" style="font:14px Menlo,Monaco,&quot;Courier New&quot;,monospace"><tspan x="329" y="276">Component checks if any assetId</tspan><tspan x="329" dy="1.2em">was mapped to this component id</tspan></text><line x1="304" x2="324" y1="302" y2="302" fill="none" stroke="#000" style="stroke-width:2px"/><line x1="324" x2="324" y1="302" y2="336" fill="none" stroke="#000" style="stroke-width:2px"/><line x1="324" x2="304" y1="336" y2="336" fill="none" stroke="#000" marker-end="url(#markerArrowBlock)" style="stroke-width:2px"/><text x="329" y="325" text-anchor="start" style="font:14px Menlo,Monaco,&quot;Courier New&quot;,monospace"><tspan x="329" y="325">Inject mapped ContentProvider to LoadableShape</tspan><tspan x="329" dy="1.2em">use scene ContentProvider otherwise</tspan></text></svg>