<svg xmlns="http://www.w3.org/2000/svg" width="685" height="243" x-original-source="participant Desktop renderer as Rparticipant Kernel as KR-&gt;K: StartAuthentication_Native\n{provider=null,isGuest=true} K-&gt;K: Load or create guest session K-&gt;R: Authenticated"><defs><marker id="markerArrowBlock" markerHeight="5" markerWidth="5" orient="auto" refX="5" refY="2.5" viewBox="0 0 5 5"><path d="M 0 0 L 5 2.5 L 0 5 z"/></marker><marker id="markerArrowOpen" markerHeight="16" markerWidth="4" orient="auto" refX="9.6" refY="8" viewBox="0 0 9.6 16"><path d="M 9.6,8 1.92,16 0,13.7 5.76,8 0,2.286 1.92,0 9.6,8 z"/></marker></defs><rect width="155" height="34" x="10" y="10" fill="#fff" stroke="#000" style="stroke-width:2px"/><text x="20" y="34" text-anchor="start" style="font:14px Menlo,Monaco,&quot;Courier New&quot;,monospace"><tspan x="20" y="34">Desktop renderer</tspan></text><rect width="155" height="34" x="10" y="179" fill="#fff" stroke="#000" style="stroke-width:2px"/><text x="20" y="203" text-anchor="start" style="font:14px Menlo,Monaco,&quot;Courier New&quot;,monospace"><tspan x="20" y="203">Desktop renderer</tspan></text><line x1="87" x2="87" y1="44" y2="179" fill="none" stroke="#000" style="stroke-width:2px"/><rect width="71" height="34" x="308" y="10" fill="#fff" stroke="#000" style="stroke-width:2px"/><text x="318" y="32" text-anchor="start" style="font:14px Menlo,Monaco,&quot;Courier New&quot;,monospace"><tspan x="318" y="32">Kernel</tspan></text><rect width="71" height="34" x="308" y="179" fill="#fff" stroke="#000" style="stroke-width:2px"/><text x="318" y="201" text-anchor="start" style="font:14px Menlo,Monaco,&quot;Courier New&quot;,monospace"><tspan x="318" y="201">Kernel</tspan></text><line x1="343" x2="343" y1="44" y2="179" fill="none" stroke="#000" style="stroke-width:2px"/><text x="97" y="77" text-anchor="start" style="font:14px Menlo,Monaco,&quot;Courier New&quot;,monospace"><tspan x="97" y="77">StartAuthentication_Native</tspan><tspan x="97" dy="1.2em">{provider=null,isGuest=true}</tspan></text><line x1="87" x2="343" y1="99" y2="99" fill="none" stroke="#000" marker-end="url(#markerArrowBlock)" style="stroke-width:2px"/><line x1="343" x2="363" y1="114" y2="114" fill="none" stroke="#000" style="stroke-width:2px"/><line x1="363" x2="363" y1="114" y2="133" fill="none" stroke="#000" style="stroke-width:2px"/><line x1="363" x2="343" y1="133" y2="133" fill="none" stroke="#000" marker-end="url(#markerArrowBlock)" style="stroke-width:2px"/><text x="368" y="130" text-anchor="start" style="font:14px Menlo,Monaco,&quot;Courier New&quot;,monospace"><tspan x="368" y="130">Load or create guest session</tspan></text><text x="160" y="159" text-anchor="start" style="font:14px Menlo,Monaco,&quot;Courier New&quot;,monospace"><tspan x="160" y="159">Authenticated</tspan></text><line x1="343" x2="87" y1="164" y2="164" fill="none" stroke="#000" marker-end="url(#markerArrowBlock)" style="stroke-width:2px"/></svg>