<svg xmlns="http://www.w3.org/2000/svg" width="672" height="318" x-original-source="participant Launcher as L participant Desktop renderer as R participant NodeJS as N participant Kernel as KL-&gt;R: open process R-&gt;N: Spawn NodeJS process N-&gt;N: Load kernel N-&gt;K: Initialize WS Connection R--&gt;K: WS Connection details K-&gt;R: WS Connection"><defs><marker id="markerArrowBlock" markerHeight="5" markerWidth="5" orient="auto" refX="5" refY="2.5" viewBox="0 0 5 5"><path d="M 0 0 L 5 2.5 L 0 5 z"/></marker><marker id="markerArrowOpen" markerHeight="16" markerWidth="4" orient="auto" refX="9.6" refY="8" viewBox="0 0 9.6 16"><path d="M 9.6,8 1.92,16 0,13.7 5.76,8 0,2.286 1.92,0 9.6,8 z"/></marker></defs><rect width="88" height="34" x="10" y="10" fill="#fff" stroke="#000" style="stroke-width:2px"/><text x="20" y="32" text-anchor="start" style="font:14px Menlo,Monaco,&quot;Courier New&quot;,monospace"><tspan x="20" y="32">Launcher</tspan></text><rect width="88" height="34" x="10" y="254" fill="#fff" stroke="#000" style="stroke-width:2px"/><text x="20" y="276" text-anchor="start" style="font:14px Menlo,Monaco,&quot;Courier New&quot;,monospace"><tspan x="20" y="276">Launcher</tspan></text><line x1="54" x2="54" y1="44" y2="254" fill="none" stroke="#000" style="stroke-width:2px"/><rect width="155" height="34" x="118" y="10" fill="#fff" stroke="#000" style="stroke-width:2px"/><text x="128" y="34" text-anchor="start" style="font:14px Menlo,Monaco,&quot;Courier New&quot;,monospace"><tspan x="128" y="34">Desktop renderer</tspan></text><rect width="155" height="34" x="118" y="254" fill="#fff" stroke="#000" style="stroke-width:2px"/><text x="128" y="278" text-anchor="start" style="font:14px Menlo,Monaco,&quot;Courier New&quot;,monospace"><tspan x="128" y="278">Desktop renderer</tspan></text><line x1="195" x2="195" y1="44" y2="254" fill="none" stroke="#000" style="stroke-width:2px"/><rect width="71" height="34" x="349" y="10" fill="#fff" stroke="#000" style="stroke-width:2px"/><text x="359" y="32" text-anchor="start" style="font:14px Menlo,Monaco,&quot;Courier New&quot;,monospace"><tspan x="359" y="32">NodeJS</tspan></text><rect width="71" height="34" x="349" y="254" fill="#fff" stroke="#000" style="stroke-width:2px"/><text x="359" y="276" text-anchor="start" style="font:14px Menlo,Monaco,&quot;Courier New&quot;,monospace"><tspan x="359" y="276">NodeJS</tspan></text><line x1="384" x2="384" y1="44" y2="254" fill="none" stroke="#000" style="stroke-width:2px"/><rect width="71" height="34" x="571" y="10" fill="#fff" stroke="#000" style="stroke-width:2px"/><text x="581" y="32" text-anchor="start" style="font:14px Menlo,Monaco,&quot;Courier New&quot;,monospace"><tspan x="581" y="32">Kernel</tspan></text><rect width="71" height="34" x="571" y="254" fill="#fff" stroke="#000" style="stroke-width:2px"/><text x="581" y="276" text-anchor="start" style="font:14px Menlo,Monaco,&quot;Courier New&quot;,monospace"><tspan x="581" y="276">Kernel</tspan></text><line x1="606" x2="606" y1="44" y2="254" fill="none" stroke="#000" style="stroke-width:2px"/><text x="74" y="76" text-anchor="start" style="font:14px Menlo,Monaco,&quot;Courier New&quot;,monospace"><tspan x="74" y="76">open process</tspan></text><line x1="54" x2="195" y1="81" y2="81" fill="none" stroke="#000" marker-end="url(#markerArrowBlock)" style="stroke-width:2px"/><text x="205" y="110" text-anchor="start" style="font:14px Menlo,Monaco,&quot;Courier New&quot;,monospace"><tspan x="205" y="110">Spawn NodeJS process</tspan></text><line x1="195" x2="384" y1="115" y2="115" fill="none" stroke="#000" marker-end="url(#markerArrowBlock)" style="stroke-width:2px"/><line x1="384" x2="404" y1="130" y2="130" fill="none" stroke="#000" style="stroke-width:2px"/><line x1="404" x2="404" y1="130" y2="146" fill="none" stroke="#000" style="stroke-width:2px"/><line x1="404" x2="384" y1="146" y2="146" fill="none" stroke="#000" marker-end="url(#markerArrowBlock)" style="stroke-width:2px"/><text x="409" y="143" text-anchor="start" style="font:14px Menlo,Monaco,&quot;Courier New&quot;,monospace"><tspan x="409" y="143">Load kernel</tspan></text><text x="394" y="172" text-anchor="start" style="font:14px Menlo,Monaco,&quot;Courier New&quot;,monospace"><tspan x="394" y="172">Initialize WS Connection</tspan></text><line x1="384" x2="606" y1="177" y2="177" fill="none" stroke="#000" marker-end="url(#markerArrowBlock)" style="stroke-width:2px"/><text x="312" y="203" text-anchor="start" style="font:14px Menlo,Monaco,&quot;Courier New&quot;,monospace"><tspan x="312" y="203">WS Connection details</tspan></text><line x1="195" x2="606" y1="208" y2="208" fill="none" stroke="#000" stroke-dasharray="6 2" marker-end="url(#markerArrowBlock)" style="stroke-width:2px"/><text x="346" y="234" text-anchor="start" style="font:14px Menlo,Monaco,&quot;Courier New&quot;,monospace"><tspan x="346" y="234">WS Connection</tspan></text><line x1="606" x2="195" y1="239" y2="239" fill="none" stroke="#000" marker-end="url(#markerArrowBlock)" style="stroke-width:2px"/></svg>