<svg xmlns="http://www.w3.org/2000/svg" width="865" height="412" x-original-source="participant Desktop renderer as R participant Kernel as K participant WalletConnectBridge as BR-&gt;K: StartAuthentication_Native\n{provider=&quot;wallet_connect&quot;,isGuest=false} K-&gt;K: Create WC provider B--&gt;K: Get QR K-&gt;R: QR Code K-&gt;K: Wait until login is successful R--&gt;B: (login with mobile phone, scan QR) B--&gt;K: Login succesful K-&gt;R: Authenticated"><defs><marker id="markerArrowBlock" markerHeight="5" markerWidth="5" orient="auto" refX="5" refY="2.5" viewBox="0 0 5 5"><path d="M 0 0 L 5 2.5 L 0 5 z"/></marker><marker id="markerArrowOpen" markerHeight="16" markerWidth="4" orient="auto" refX="9.6" refY="8" viewBox="0 0 9.6 16"><path d="M 9.6,8 1.92,16 0,13.7 5.76,8 0,2.286 1.92,0 9.6,8 z"/></marker></defs><rect width="155" height="34" x="10" y="10" fill="#fff" stroke="#000" style="stroke-width:2px"/><text x="20" y="34" text-anchor="start" style="font:14px Menlo,Monaco,&quot;Courier New&quot;,monospace"><tspan x="20" y="34">Desktop renderer</tspan></text><rect width="155" height="34" x="10" y="348" fill="#fff" stroke="#000" style="stroke-width:2px"/><text x="20" y="372" text-anchor="start" style="font:14px Menlo,Monaco,&quot;Courier New&quot;,monospace"><tspan x="20" y="372">Desktop renderer</tspan></text><line x1="87" x2="87" y1="44" y2="348" fill="none" stroke="#000" style="stroke-width:2px"/><rect width="71" height="34" x="417" y="10" fill="#fff" stroke="#000" style="stroke-width:2px"/><text x="427" y="32" text-anchor="start" style="font:14px Menlo,Monaco,&quot;Courier New&quot;,monospace"><tspan x="427" y="32">Kernel</tspan></text><rect width="71" height="34" x="417" y="348" fill="#fff" stroke="#000" style="stroke-width:2px"/><text x="427" y="370" text-anchor="start" style="font:14px Menlo,Monaco,&quot;Courier New&quot;,monospace"><tspan x="427" y="370">Kernel</tspan></text><line x1="452" x2="452" y1="44" y2="348" fill="none" stroke="#000" style="stroke-width:2px"/><rect width="180" height="34" x="655" y="10" fill="#fff" stroke="#000" style="stroke-width:2px"/><text x="665" y="34" text-anchor="start" style="font:14px Menlo,Monaco,&quot;Courier New&quot;,monospace"><tspan x="665" y="34">WalletConnectBridge</tspan></text><rect width="180" height="34" x="655" y="348" fill="#fff" stroke="#000" style="stroke-width:2px"/><text x="665" y="372" text-anchor="start" style="font:14px Menlo,Monaco,&quot;Courier New&quot;,monospace"><tspan x="665" y="372">WalletConnectBridge</tspan></text><line x1="745" x2="745" y1="44" y2="348" fill="none" stroke="#000" style="stroke-width:2px"/><text x="97" y="77" text-anchor="start" style="font:14px Menlo,Monaco,&quot;Courier New&quot;,monospace"><tspan x="97" y="77">StartAuthentication_Native</tspan><tspan x="97" dy="1.2em">{provider=&quot;wallet_connect&quot;,isGuest=false}</tspan></text><line x1="87" x2="452" y1="99" y2="99" fill="none" stroke="#000" marker-end="url(#markerArrowBlock)" style="stroke-width:2px"/><line x1="452" x2="472" y1="114" y2="114" fill="none" stroke="#000" style="stroke-width:2px"/><line x1="472" x2="472" y1="114" y2="133" fill="none" stroke="#000" style="stroke-width:2px"/><line x1="472" x2="452" y1="133" y2="133" fill="none" stroke="#000" marker-end="url(#markerArrowBlock)" style="stroke-width:2px"/><text x="477" y="130" text-anchor="start" style="font:14px Menlo,Monaco,&quot;Courier New&quot;,monospace"><tspan x="477" y="130">Create WC provider</tspan></text><text x="573" y="161" text-anchor="start" style="font:14px Menlo,Monaco,&quot;Courier New&quot;,monospace"><tspan x="573" y="161">Get QR</tspan></text><line x1="745" x2="452" y1="166" y2="166" fill="none" stroke="#000" stroke-dasharray="6 2" marker-end="url(#markerArrowBlock)" style="stroke-width:2px"/><text x="240" y="195" text-anchor="start" style="font:14px Menlo,Monaco,&quot;Courier New&quot;,monospace"><tspan x="240" y="195">QR Code</tspan></text><line x1="452" x2="87" y1="200" y2="200" fill="none" stroke="#000" marker-end="url(#markerArrowBlock)" style="stroke-width:2px"/><line x1="452" x2="472" y1="215" y2="215" fill="none" stroke="#000" style="stroke-width:2px"/><line x1="472" x2="472" y1="215" y2="234" fill="none" stroke="#000" style="stroke-width:2px"/><line x1="472" x2="452" y1="234" y2="234" fill="none" stroke="#000" marker-end="url(#markerArrowBlock)" style="stroke-width:2px"/><text x="477" y="231" text-anchor="start" style="font:14px Menlo,Monaco,&quot;Courier New&quot;,monospace"><tspan x="477" y="231">Wait until login is successful</tspan></text><text x="273" y="263" text-anchor="start" style="font:14px Menlo,Monaco,&quot;Courier New&quot;,monospace"><tspan x="273" y="263">(login with mobile phone, scan QR)</tspan></text><line x1="87" x2="745" y1="268" y2="268" fill="none" stroke="#000" stroke-dasharray="6 2" marker-end="url(#markerArrowBlock)" style="stroke-width:2px"/><text x="535" y="297" text-anchor="start" style="font:14px Menlo,Monaco,&quot;Courier New&quot;,monospace"><tspan x="535" y="297">Login succesful</tspan></text><line x1="745" x2="452" y1="302" y2="302" fill="none" stroke="#000" stroke-dasharray="6 2" marker-end="url(#markerArrowBlock)" style="stroke-width:2px"/><text x="215" y="328" text-anchor="start" style="font:14px Menlo,Monaco,&quot;Courier New&quot;,monospace"><tspan x="215" y="328">Authenticated</tspan></text><line x1="452" x2="87" y1="333" y2="333" fill="none" stroke="#000" marker-end="url(#markerArrowBlock)" style="stroke-width:2px"/></svg>