<svg xmlns="http://www.w3.org/2000/svg" xmlns:xlink="http://www.w3.org/1999/xlink" width="412pt" height="166pt" viewBox="0 0 411.57 166"><g id="graph0" class="graph" transform="scale(1 1) rotate(0) translate(4 162)"><polygon fill="#fff" stroke="transparent" points="-4 4 -4 -162 407.57 -162 407.57 4 -4 4"/><g id="node1" class="node"><title>users</title><path fill="none" stroke="#000" d="M42,-156C42,-156 12,-156 12,-156 6,-156 0,-150 0,-144 0,-144 0,-132 0,-132 0,-126 6,-120 12,-120 12,-120 42,-120 42,-120 48,-120 54,-126 54,-132 54,-132 54,-144 54,-144 54,-150 48,-156 42,-156"/><text x="27" y="-135" font-family="arial" font-size="10" text-anchor="middle">users</text></g><g id="node2" class="node"><title>marketplace</title><path fill="none" stroke="#000" d="M229.78,-144C229.78,-144 182.88,-144 182.88,-144 176.88,-144 170.88,-138 170.88,-132 170.88,-132 170.88,-120 170.88,-120 170.88,-114 176.88,-108 182.88,-108 182.88,-108 229.78,-108 229.78,-108 235.78,-108 241.78,-114 241.78,-120 241.78,-120 241.78,-132 241.78,-132 241.78,-138 235.78,-144 229.78,-144"/><text x="206.33" y="-123" font-family="arial" font-size="10" text-anchor="middle">marketplace</text></g><g id="edge1" class="edge"><title>users-&gt;marketplace</title><path fill="none" stroke="orange" d="M54.17,-136.23C82.19,-134.33 127.17,-131.29 160.79,-129.01"/><polygon fill="orange" stroke="orange" points="161.09 -132.5 170.83 -128.33 160.61 -125.52 161.09 -132.5"/><text x="112.55" y="-149" fill="orange" font-family="arial" font-size="10" text-anchor="middle">Perform primary &amp;</text><text x="112.55" y="-137" fill="orange" font-family="arial" font-size="10" text-anchor="middle">secondary sales</text></g><g id="edge2" class="edge"><title>users-&gt;marketplace</title><path fill="none" stroke="#00f" d="M54.11,-121.03C59.79,-118.12 65.93,-115.55 72,-114 101.03,-106.6 134.62,-109.69 160.83,-114.59"/><polygon fill="#00f" stroke="#00f" points="160.35 -118.06 170.85 -116.61 161.74 -111.2 160.35 -118.06"/><text x="112.55" y="-117" fill="#00f" font-family="arial" font-size="10" text-anchor="middle">Bid</text></g><g id="node3" class="node"><title>collections</title><path fill="none" stroke="#000" d="M391.41,-90C391.41,-90 353.07,-90 353.07,-90 347.07,-90 341.07,-84 341.07,-78 341.07,-78 341.07,-66 341.07,-66 341.07,-60 347.07,-54 353.07,-54 353.07,-54 391.41,-54 391.41,-54 397.41,-54 403.41,-60 403.41,-66 403.41,-66 403.41,-78 403.41,-78 403.41,-84 397.41,-90 391.41,-90"/><text x="372.24" y="-69" font-family="arial" font-size="10" text-anchor="middle">collections</text></g><g id="edge3" class="edge"><title>marketplace-&gt;collections</title><path fill="none" stroke="orange" d="M241.72,-114.71C264.71,-107.16 295.62,-97 322.9,-88 325.62,-87.1 328.42,-86.18 331.24,-85.25"/><polygon fill="orange" stroke="orange" points="332.42 -88.54 340.82 -82.08 330.22 -81.9 332.42 -88.54"/></g><g id="node4" class="node"><title>creators</title><path fill="none" stroke="#000" d="M42,-90C42,-90 12,-90 12,-90 6,-90 0,-84 0,-78 0,-78 0,-66 0,-66 0,-60 6,-54 12,-54 12,-54 42,-54 42,-54 48,-54 54,-60 54,-66 54,-66 54,-78 54,-78 54,-84 48,-90 42,-90"/><text x="27" y="-69" font-family="arial" font-size="10" text-anchor="middle">creators</text></g><g id="node5" class="node"><title>stores</title><path fill="none" stroke="#000" d="M221.33,-90C221.33,-90 191.33,-90 191.33,-90 185.33,-90 179.33,-84 179.33,-78 179.33,-78 179.33,-66 179.33,-66 179.33,-60 185.33,-54 191.33,-54 191.33,-54 221.33,-54 221.33,-54 227.33,-54 233.33,-60 233.33,-66 233.33,-66 233.33,-78 233.33,-78 233.33,-84 227.33,-90 221.33,-90"/><text x="206.33" y="-69" font-family="arial" font-size="10" text-anchor="middle">stores</text></g><g id="edge4" class="edge"><title>creators-&gt;stores</title><path fill="none" stroke="#00f" d="M54.17,-72C84.55,-72 134.86,-72 169.01,-72"/><polygon fill="#00f" stroke="#00f" points="169.06 -75.5 179.06 -72 169.06 -68.5 169.06 -75.5"/><text x="112.55" y="-75" fill="#00f" font-family="arial" font-size="10" text-anchor="middle">create</text></g><g id="edge5" class="edge"><title>stores-&gt;collections</title><path fill="none" stroke="#00f" d="M233.66,-72C259.81,-72 300.26,-72 330.54,-72"/><polygon fill="#00f" stroke="#00f" points="330.79 -75.5 340.79 -72 330.79 -68.5 330.79 -75.5"/><text x="291.23" y="-75" fill="#00f" font-family="arial" font-size="10" text-anchor="middle">has</text></g><g id="node6" class="node"><title>commiteee</title><path fill="none" stroke="#000" d="M226.72,-36C226.72,-36 185.94,-36 185.94,-36 179.94,-36 173.94,-30 173.94,-24 173.94,-24 173.94,-12 173.94,-12 173.94,-6 179.94,0 185.94,0 185.94,0 226.72,0 226.72,0 232.72,0 238.72,-6 238.72,-12 238.72,-12 238.72,-24 238.72,-24 238.72,-30 232.72,-36 226.72,-36"/><text x="206.33" y="-15" font-family="arial" font-size="10" text-anchor="middle">commiteee</text></g><g id="edge6" class="edge"><title>commiteee-&gt;collections</title><path fill="none" stroke="orange" d="M238.73,-28.31C261.98,-35.94 294.42,-46.6 322.9,-56 325.62,-56.9 328.42,-57.82 331.24,-58.75"/><polygon fill="orange" stroke="orange" points="330.22 -62.1 340.82 -61.92 332.42 -55.46 330.22 -62.1"/><text x="291.23" y="-59" fill="orange" font-family="arial" font-size="10" text-anchor="middle">approve/reject</text></g></g></svg>