<svg xmlns="http://www.w3.org/2000/svg" xmlns:xlink="http://www.w3.org/1999/xlink" width="94pt" height="188pt" viewBox="0 0 94.45 188"><g id="graph0" class="graph" transform="scale(1 1) rotate(0) translate(4 184)"><title>G</title><polygon fill="#fff" stroke="transparent" points="-4 4 -4 -184 90.45 -184 90.45 4 -4 4"/><g id="node1" class="node"><title>Systems</title><ellipse cx="43.23" cy="-162" fill="none" stroke="#000" rx="43.46" ry="18"/><text x="43.23" y="-157.8" font-family="Times,serif" font-size="14" text-anchor="middle">Systems</text></g><g id="node2" class="node"><title>Data</title><ellipse cx="43.23" cy="-90" fill="none" stroke="#000" rx="29.03" ry="18"/><text x="43.23" y="-85.8" font-family="Times,serif" font-size="14" text-anchor="middle">Data</text></g><g id="edge1" class="edge"><title>Systems-&gt;Data</title><path fill="none" stroke="#000" d="M43.23,-143.7C43.23,-135.98 43.23,-126.71 43.23,-118.11"/><polygon fill="#000" stroke="#000" points="46.73 -118.1 43.23 -108.1 39.73 -118.1 46.73 -118.1"/></g><g id="node3" class="node"><title>Assets</title><ellipse cx="43.23" cy="-18" fill="none" stroke="#000" rx="36.49" ry="18"/><text x="43.23" y="-13.8" font-family="Times,serif" font-size="14" text-anchor="middle">Assets</text></g><g id="edge2" class="edge"><title>Data-&gt;Assets</title><path fill="none" stroke="#000" d="M43.23,-71.7C43.23,-63.98 43.23,-54.71 43.23,-46.11"/><polygon fill="#000" stroke="#000" points="46.73 -46.1 43.23 -36.1 39.73 -46.1 46.73 -46.1"/></g></g></svg>