<svg xmlns="http://www.w3.org/2000/svg" xmlns:xlink="http://www.w3.org/1999/xlink" width="364pt" height="188pt" viewBox="0 0 364.02 188"><g id="graph0" class="graph" transform="scale(1 1) rotate(0) translate(4 184)"><title>G</title><polygon fill="#fff" stroke="transparent" points="-4 4 -4 -184 360.02 -184 360.02 4 -4 4"/><g id="node1" class="node"><title>Systems</title><ellipse cx="170.8" cy="-162" fill="none" stroke="#000" rx="43.46" ry="18"/><text x="170.8" y="-157.8" font-family="Times,serif" font-size="14" text-anchor="middle">Systems</text></g><g id="node2" class="node"><title>Data</title><ellipse cx="170.8" cy="-90" fill="none" stroke="#000" rx="29.03" ry="18"/><text x="170.8" y="-85.8" font-family="Times,serif" font-size="14" text-anchor="middle">Data</text></g><g id="edge1" class="edge"><title>Systems-&gt;Data</title><path fill="none" stroke="#000" d="M170.8,-143.7C170.8,-135.98 170.8,-126.71 170.8,-118.11"/><polygon fill="#000" stroke="#000" points="174.3 -118.1 170.8 -108.1 167.3 -118.1 174.3 -118.1"/></g><g id="node3" class="node"><title>Assets</title><ellipse cx="77.8" cy="-18" fill="none" stroke="#000" rx="77.6" ry="18"/><text x="77.8" y="-13.8" font-family="Times,serif" font-size="14" text-anchor="middle">SO BaseVariable</text></g><g id="edge2" class="edge"><title>Data-&gt;Assets</title><path fill="none" stroke="#000" d="M152.87,-75.5C140.16,-65.94 122.81,-52.88 107.99,-41.72"/><polygon fill="#000" stroke="#000" points="109.7 -38.63 99.61 -35.41 105.49 -44.22 109.7 -38.63"/></g><g id="node4" class="node"><title>Data_State</title><ellipse cx="264.8" cy="-18" fill="none" stroke="#000" rx="91.43" ry="18"/><text x="264.8" y="-13.8" font-family="Times,serif" font-size="14" text-anchor="middle">POCO BaseVariable</text></g><g id="edge3" class="edge"><title>Data-&gt;Data_State</title><path fill="none" stroke="#000" d="M188.93,-75.5C201.8,-65.92 219.39,-52.81 234.4,-41.64"/><polygon fill="#000" stroke="#000" points="236.49 -44.45 242.42 -35.67 232.31 -38.83 236.49 -44.45"/></g></g></svg>