<svg xmlns="http://www.w3.org/2000/svg" width="568" height="218" x-original-source="participant User as U participant Builder as B participant Builder Server as PT U-&gt;B: Upload new version of item B--&gt;B: Edit item metadata B-&gt;PT: Save item"><defs><marker id="markerArrowBlock" markerHeight="5" markerWidth="5" orient="auto" refX="5" refY="2.5" viewBox="0 0 5 5"><path d="M 0 0 L 5 2.5 L 0 5 z"/></marker><marker id="markerArrowOpen" markerHeight="16" markerWidth="4" orient="auto" refX="9.6" refY="8" viewBox="0 0 9.6 16"><path d="M 9.6,8 1.92,16 0,13.7 5.76,8 0,2.286 1.92,0 9.6,8 z"/></marker></defs><rect width="54" height="31" x="10" y="10" fill="#fff" stroke="#000" style="stroke-width:2px"/><text x="20" y="31" text-anchor="start" style="font:14px Menlo,Monaco,&quot;Courier New&quot;,monospace"><tspan x="20" y="31">User</tspan></text><rect width="54" height="31" x="10" y="157" fill="#fff" stroke="#000" style="stroke-width:2px"/><text x="20" y="178" text-anchor="start" style="font:14px Menlo,Monaco,&quot;Courier New&quot;,monospace"><tspan x="20" y="178">User</tspan></text><line x1="37" x2="37" y1="41" y2="157" fill="none" stroke="#000" style="stroke-width:2px"/><rect width="80" height="31" x="237" y="10" fill="#fff" stroke="#000" style="stroke-width:2px"/><text x="247" y="31" text-anchor="start" style="font:14px Menlo,Monaco,&quot;Courier New&quot;,monospace"><tspan x="247" y="31">Builder</tspan></text><rect width="80" height="31" x="237" y="157" fill="#fff" stroke="#000" style="stroke-width:2px"/><text x="247" y="178" text-anchor="start" style="font:14px Menlo,Monaco,&quot;Courier New&quot;,monospace"><tspan x="247" y="178">Builder</tspan></text><line x1="277" x2="277" y1="41" y2="157" fill="none" stroke="#000" style="stroke-width:2px"/><rect width="139" height="31" x="399" y="10" fill="#fff" stroke="#000" style="stroke-width:2px"/><text x="409" y="31" text-anchor="start" style="font:14px Menlo,Monaco,&quot;Courier New&quot;,monospace"><tspan x="409" y="31">Builder Server</tspan></text><rect width="139" height="31" x="399" y="157" fill="#fff" stroke="#000" style="stroke-width:2px"/><text x="409" y="178" text-anchor="start" style="font:14px Menlo,Monaco,&quot;Courier New&quot;,monospace"><tspan x="409" y="178">Builder Server</tspan></text><line x1="468" x2="468" y1="41" y2="157" fill="none" stroke="#000" style="stroke-width:2px"/><text x="47" y="75" text-anchor="start" style="font:14px Menlo,Monaco,&quot;Courier New&quot;,monospace"><tspan x="47" y="75">Upload new version of item</tspan></text><line x1="37" x2="277" y1="80" y2="80" fill="none" stroke="#000" marker-end="url(#markerArrowBlock)" style="stroke-width:2px"/><line x1="277" x2="297" y1="95" y2="95" fill="none" stroke="#000" stroke-dasharray="6 2" style="stroke-width:2px"/><line x1="297" x2="297" y1="95" y2="111" fill="none" stroke="#000" stroke-dasharray="6 2" style="stroke-width:2px"/><line x1="297" x2="277" y1="111" y2="111" fill="none" stroke="#000" stroke-dasharray="6 2" marker-end="url(#markerArrowBlock)" style="stroke-width:2px"/><text x="302" y="108" text-anchor="start" style="font:14px Menlo,Monaco,&quot;Courier New&quot;,monospace"><tspan x="302" y="108">Edit item metadata</tspan></text><text x="334" y="137" text-anchor="start" style="font:14px Menlo,Monaco,&quot;Courier New&quot;,monospace"><tspan x="334" y="137">Save item</tspan></text><line x1="277" x2="468" y1="142" y2="142" fill="none" stroke="#000" marker-end="url(#markerArrowBlock)" style="stroke-width:2px"/></svg>