<svg xmlns="http://www.w3.org/2000/svg" width="962" height="303" x-original-source="participant Creator as C participant Builder as B participant Builder Server as PT participant Matic Collection Factory as M participant Matic Collection as MCC-&gt;B: Create collection &amp;\n upload items B--&gt;PT: Save collection &amp; items C-&gt;B: Publish collection B--&gt;M: Deploy collection M--&gt;MC: Create collection"><defs><marker id="markerArrowBlock" markerHeight="5" markerWidth="5" orient="auto" refX="5" refY="2.5" viewBox="0 0 5 5"><path d="M 0 0 L 5 2.5 L 0 5 z"/></marker><marker id="markerArrowOpen" markerHeight="16" markerWidth="4" orient="auto" refX="9.6" refY="8" viewBox="0 0 9.6 16"><path d="M 9.6,8 1.92,16 0,13.7 5.76,8 0,2.286 1.92,0 9.6,8 z"/></marker></defs><rect width="80" height="34" x="10" y="10" fill="#fff" stroke="#000" style="stroke-width:2px"/><text x="20" y="32" text-anchor="start" style="font:14px Menlo,Monaco,&quot;Courier New&quot;,monospace"><tspan x="20" y="32">Creator</tspan></text><rect width="80" height="34" x="10" y="239" fill="#fff" stroke="#000" style="stroke-width:2px"/><text x="20" y="261" text-anchor="start" style="font:14px Menlo,Monaco,&quot;Courier New&quot;,monospace"><tspan x="20" y="261">Creator</tspan></text><line x1="50" x2="50" y1="44" y2="239" fill="none" stroke="#000" style="stroke-width:2px"/><rect width="80" height="34" x="191" y="10" fill="#fff" stroke="#000" style="stroke-width:2px"/><text x="201" y="32" text-anchor="start" style="font:14px Menlo,Monaco,&quot;Courier New&quot;,monospace"><tspan x="201" y="32">Builder</tspan></text><rect width="80" height="34" x="191" y="239" fill="#fff" stroke="#000" style="stroke-width:2px"/><text x="201" y="261" text-anchor="start" style="font:14px Menlo,Monaco,&quot;Courier New&quot;,monospace"><tspan x="201" y="261">Builder</tspan></text><line x1="231" x2="231" y1="44" y2="239" fill="none" stroke="#000" style="stroke-width:2px"/><rect width="139" height="34" x="375" y="10" fill="#fff" stroke="#000" style="stroke-width:2px"/><text x="385" y="32" text-anchor="start" style="font:14px Menlo,Monaco,&quot;Courier New&quot;,monospace"><tspan x="385" y="32">Builder Server</tspan></text><rect width="139" height="34" x="375" y="239" fill="#fff" stroke="#000" style="stroke-width:2px"/><text x="385" y="261" text-anchor="start" style="font:14px Menlo,Monaco,&quot;Courier New&quot;,monospace"><tspan x="385" y="261">Builder Server</tspan></text><line x1="444" x2="444" y1="44" y2="239" fill="none" stroke="#000" style="stroke-width:2px"/><rect width="223" height="34" x="534" y="10" fill="#fff" stroke="#000" style="stroke-width:2px"/><text x="544" y="34" text-anchor="start" style="font:14px Menlo,Monaco,&quot;Courier New&quot;,monospace"><tspan x="544" y="34">Matic Collection Factory</tspan></text><rect width="223" height="34" x="534" y="239" fill="#fff" stroke="#000" style="stroke-width:2px"/><text x="544" y="263" text-anchor="start" style="font:14px Menlo,Monaco,&quot;Courier New&quot;,monospace"><tspan x="544" y="263">Matic Collection Factory</tspan></text><line x1="645" x2="645" y1="44" y2="239" fill="none" stroke="#000" style="stroke-width:2px"/><rect width="155" height="34" x="777" y="10" fill="#fff" stroke="#000" style="stroke-width:2px"/><text x="787" y="32" text-anchor="start" style="font:14px Menlo,Monaco,&quot;Courier New&quot;,monospace"><tspan x="787" y="32">Matic Collection</tspan></text><rect width="155" height="34" x="777" y="239" fill="#fff" stroke="#000" style="stroke-width:2px"/><text x="787" y="261" text-anchor="start" style="font:14px Menlo,Monaco,&quot;Courier New&quot;,monospace"><tspan x="787" y="261">Matic Collection</tspan></text><line x1="854" x2="854" y1="44" y2="239" fill="none" stroke="#000" style="stroke-width:2px"/><text x="60" y="75" text-anchor="start" style="font:14px Menlo,Monaco,&quot;Courier New&quot;,monospace"><tspan x="60" y="75">Create collection &amp;</tspan><tspan x="60" dy="1.2em"> upload items</tspan></text><line x1="50" x2="231" y1="97" y2="97" fill="none" stroke="#000" marker-end="url(#markerArrowBlock)" style="stroke-width:2px"/><text x="240" y="123" text-anchor="start" style="font:14px Menlo,Monaco,&quot;Courier New&quot;,monospace"><tspan x="240" y="123">Save collection &amp; items</tspan></text><line x1="231" x2="444" y1="128" y2="128" fill="none" stroke="#000" stroke-dasharray="6 2" marker-end="url(#markerArrowBlock)" style="stroke-width:2px"/><text x="64" y="154" text-anchor="start" style="font:14px Menlo,Monaco,&quot;Courier New&quot;,monospace"><tspan x="64" y="154">Publish collection</tspan></text><line x1="50" x2="231" y1="159" y2="159" fill="none" stroke="#000" marker-end="url(#markerArrowBlock)" style="stroke-width:2px"/><text x="366" y="188" text-anchor="start" style="font:14px Menlo,Monaco,&quot;Courier New&quot;,monospace"><tspan x="366" y="188">Deploy collection</tspan></text><line x1="231" x2="645" y1="193" y2="193" fill="none" stroke="#000" stroke-dasharray="6 2" marker-end="url(#markerArrowBlock)" style="stroke-width:2px"/><text x="678" y="219" text-anchor="start" style="font:14px Menlo,Monaco,&quot;Courier New&quot;,monospace"><tspan x="678" y="219">Create collection</tspan></text><line x1="645" x2="854" y1="224" y2="224" fill="none" stroke="#000" stroke-dasharray="6 2" marker-end="url(#markerArrowBlock)" style="stroke-width:2px"/></svg>