<svg xmlns="http://www.w3.org/2000/svg" width="1548" height="459" x-original-source="participant Committee as C participant Builder server as PT participant Builder as B participant Matic Collection as M participant DAO Peer as P B-&gt;PT: Fetch all \nitems from a collection C-&gt;B: approve(content_hashes[]) B--&gt;B: Create new deployments for the catalyst using\nspecific assets from content hashes B-&gt;M: sendTx: approve(content_hashes) M--&gt;M: Update item hashes &amp; approve collection M--&gt;B: txMined B-&gt;P: Deploy entitities M--&gt;P: approved content_hashes[] P-&gt;P: Check and accept deployments"><defs><marker id="markerArrowBlock" markerHeight="5" markerWidth="5" orient="auto" refX="5" refY="2.5" viewBox="0 0 5 5"><path d="M 0 0 L 5 2.5 L 0 5 z"/></marker><marker id="markerArrowOpen" markerHeight="16" markerWidth="4" orient="auto" refX="9.6" refY="8" viewBox="0 0 9.6 16"><path d="M 9.6,8 1.92,16 0,13.7 5.76,8 0,2.286 1.92,0 9.6,8 z"/></marker></defs><rect width="96" height="31" x="10" y="10" fill="#fff" stroke="#000" style="stroke-width:2px"/><text x="20" y="31" text-anchor="start" style="font:14px Menlo,Monaco,&quot;Courier New&quot;,monospace"><tspan x="20" y="31">Committee</tspan></text><rect width="96" height="31" x="10" y="398" fill="#fff" stroke="#000" style="stroke-width:2px"/><text x="20" y="419" text-anchor="start" style="font:14px Menlo,Monaco,&quot;Courier New&quot;,monospace"><tspan x="20" y="419">Committee</tspan></text><line x1="58" x2="58" y1="41" y2="398" fill="none" stroke="#000" style="stroke-width:2px"/><rect width="139" height="31" x="126" y="10" fill="#fff" stroke="#000" style="stroke-width:2px"/><text x="136" y="31" text-anchor="start" style="font:14px Menlo,Monaco,&quot;Courier New&quot;,monospace"><tspan x="136" y="31">Builder server</tspan></text><rect width="139" height="31" x="126" y="398" fill="#fff" stroke="#000" style="stroke-width:2px"/><text x="136" y="419" text-anchor="start" style="font:14px Menlo,Monaco,&quot;Courier New&quot;,monospace"><tspan x="136" y="419">Builder server</tspan></text><line x1="195" x2="195" y1="41" y2="398" fill="none" stroke="#000" style="stroke-width:2px"/><rect width="80" height="31" x="369" y="10" fill="#fff" stroke="#000" style="stroke-width:2px"/><text x="379" y="31" text-anchor="start" style="font:14px Menlo,Monaco,&quot;Courier New&quot;,monospace"><tspan x="379" y="31">Builder</tspan></text><rect width="80" height="31" x="369" y="398" fill="#fff" stroke="#000" style="stroke-width:2px"/><text x="379" y="419" text-anchor="start" style="font:14px Menlo,Monaco,&quot;Courier New&quot;,monospace"><tspan x="379" y="419">Builder</tspan></text><line x1="409" x2="409" y1="41" y2="398" fill="none" stroke="#000" style="stroke-width:2px"/><rect width="155" height="31" x="751" y="10" fill="#fff" stroke="#000" style="stroke-width:2px"/><text x="761" y="31" text-anchor="start" style="font:14px Menlo,Monaco,&quot;Courier New&quot;,monospace"><tspan x="761" y="31">Matic Collection</tspan></text><rect width="155" height="31" x="751" y="398" fill="#fff" stroke="#000" style="stroke-width:2px"/><text x="761" y="419" text-anchor="start" style="font:14px Menlo,Monaco,&quot;Courier New&quot;,monospace"><tspan x="761" y="419">Matic Collection</tspan></text><line x1="828" x2="828" y1="41" y2="398" fill="none" stroke="#000" style="stroke-width:2px"/><rect width="88" height="31" x="1153" y="10" fill="#fff" stroke="#000" style="stroke-width:2px"/><text x="1163" y="31" text-anchor="start" style="font:14px Menlo,Monaco,&quot;Courier New&quot;,monospace"><tspan x="1163" y="31">DAO Peer</tspan></text><rect width="88" height="31" x="1153" y="398" fill="#fff" stroke="#000" style="stroke-width:2px"/><text x="1163" y="419" text-anchor="start" style="font:14px Menlo,Monaco,&quot;Courier New&quot;,monospace"><tspan x="1163" y="419">DAO Peer</tspan></text><line x1="1197" x2="1197" y1="41" y2="398" fill="none" stroke="#000" style="stroke-width:2px"/><text x="205" y="72" text-anchor="start" style="font:14px Menlo,Monaco,&quot;Courier New&quot;,monospace"><tspan x="205" y="72">Fetch all </tspan><tspan x="205" dy="1.2em">items from a collection</tspan></text><line x1="409" x2="195" y1="94" y2="94" fill="none" stroke="#000" marker-end="url(#markerArrowBlock)" style="stroke-width:2px"/><text x="128" y="124" text-anchor="start" style="font:14px Menlo,Monaco,&quot;Courier New&quot;,monospace"><tspan x="128" y="124">approve(content_hashes[])</tspan></text><line x1="58" x2="409" y1="129" y2="129" fill="none" stroke="#000" marker-end="url(#markerArrowBlock)" style="stroke-width:2px"/><line x1="409" x2="429" y1="144" y2="144" fill="none" stroke="#000" stroke-dasharray="6 2" style="stroke-width:2px"/><line x1="429" x2="429" y1="144" y2="180" fill="none" stroke="#000" stroke-dasharray="6 2" style="stroke-width:2px"/><line x1="429" x2="409" y1="180" y2="180" fill="none" stroke="#000" stroke-dasharray="6 2" marker-end="url(#markerArrowBlock)" style="stroke-width:2px"/><text x="434" y="169" text-anchor="start" style="font:14px Menlo,Monaco,&quot;Courier New&quot;,monospace"><tspan x="434" y="169">Create new deployments for the catalyst using</tspan><tspan x="434" dy="1.2em">specific assets from content hashes</tspan></text><text x="487" y="210" text-anchor="start" style="font:14px Menlo,Monaco,&quot;Courier New&quot;,monospace"><tspan x="487" y="210">sendTx: approve(content_hashes)</tspan></text><line x1="409" x2="828" y1="215" y2="215" fill="none" stroke="#000" marker-end="url(#markerArrowBlock)" style="stroke-width:2px"/><line x1="828" x2="848" y1="230" y2="230" fill="none" stroke="#000" stroke-dasharray="6 2" style="stroke-width:2px"/><line x1="848" x2="848" y1="230" y2="249" fill="none" stroke="#000" stroke-dasharray="6 2" style="stroke-width:2px"/><line x1="848" x2="828" y1="249" y2="249" fill="none" stroke="#000" stroke-dasharray="6 2" marker-end="url(#markerArrowBlock)" style="stroke-width:2px"/><text x="853" y="246" text-anchor="start" style="font:14px Menlo,Monaco,&quot;Courier New&quot;,monospace"><tspan x="853" y="246">Update item hashes &amp; approve collection</tspan></text><text x="588" y="275" text-anchor="start" style="font:14px Menlo,Monaco,&quot;Courier New&quot;,monospace"><tspan x="588" y="275">txMined</tspan></text><line x1="828" x2="409" y1="280" y2="280" fill="none" stroke="#000" stroke-dasharray="6 2" marker-end="url(#markerArrowBlock)" style="stroke-width:2px"/><text x="731" y="309" text-anchor="start" style="font:14px Menlo,Monaco,&quot;Courier New&quot;,monospace"><tspan x="731" y="309">Deploy entitities</tspan></text><line x1="409" x2="1197" y1="314" y2="314" fill="none" stroke="#000" marker-end="url(#markerArrowBlock)" style="stroke-width:2px"/><text x="907" y="344" text-anchor="start" style="font:14px Menlo,Monaco,&quot;Courier New&quot;,monospace"><tspan x="907" y="344">approved content_hashes[]</tspan></text><line x1="828" x2="1197" y1="349" y2="349" fill="none" stroke="#000" stroke-dasharray="6 2" marker-end="url(#markerArrowBlock)" style="stroke-width:2px"/><line x1="1197" x2="1217" y1="364" y2="364" fill="none" stroke="#000" style="stroke-width:2px"/><line x1="1217" x2="1217" y1="364" y2="383" fill="none" stroke="#000" style="stroke-width:2px"/><line x1="1217" x2="1197" y1="383" y2="383" fill="none" stroke="#000" marker-end="url(#markerArrowBlock)" style="stroke-width:2px"/><text x="1222" y="380" text-anchor="start" style="font:14px Menlo,Monaco,&quot;Courier New&quot;,monospace"><tspan x="1222" y="380">Check and accept deployments</tspan></text></svg>