<svg xmlns="http://www.w3.org/2000/svg" width="565" height="247"><defs><marker id="markerArrowBlock" markerHeight="5" markerWidth="5" orient="auto" refX="5" refY="2.5" viewBox="0 0 5 5"><path d="M 0 0 L 5 2.5 L 0 5 z"/></marker><marker id="markerArrowOpen" markerHeight="16" markerWidth="4" orient="auto" refX="9.6" refY="8" viewBox="0 0 9.6 16"><path d="M 9.6,8 1.92,16 0,13.7 5.76,8 0,2.286 1.92,0 9.6,8 z"/></marker></defs><rect width="53" height="33" x="10" y="10" fill="#fff" stroke="#000" style="stroke-width:2px"/><text x="20" y="30" text-anchor="start" style="font:14px Menlo,Monaco,&quot;Courier New&quot;,monospace"><tspan x="20" y="30">user</tspan></text><rect width="53" height="33" x="10" y="184" fill="#fff" stroke="#000" style="stroke-width:2px"/><text x="20" y="204" text-anchor="start" style="font:14px Menlo,Monaco,&quot;Courier New&quot;,monospace"><tspan x="20" y="204">user</tspan></text><line x1="36" x2="36" y1="43" y2="184" fill="none" stroke="#000" style="stroke-width:2px"/><rect width="87" height="33" x="97" y="10" fill="#fff" stroke="#000" style="stroke-width:2px"/><text x="107" y="31" text-anchor="start" style="font:14px Menlo,Monaco,&quot;Courier New&quot;,monospace"><tspan x="107" y="31">renderer</tspan></text><rect width="87" height="33" x="97" y="184" fill="#fff" stroke="#000" style="stroke-width:2px"/><text x="107" y="206" text-anchor="start" style="font:14px Menlo,Monaco,&quot;Courier New&quot;,monospace"><tspan x="107" y="206">renderer</tspan></text><line x1="140" x2="140" y1="43" y2="184" fill="none" stroke="#000" style="stroke-width:2px"/><rect width="70" height="33" x="204" y="10" fill="#fff" stroke="#000" style="stroke-width:2px"/><text x="214" y="31" text-anchor="start" style="font:14px Menlo,Monaco,&quot;Courier New&quot;,monospace"><tspan x="214" y="31">worker</tspan></text><rect width="70" height="33" x="204" y="184" fill="#fff" stroke="#000" style="stroke-width:2px"/><text x="214" y="206" text-anchor="start" style="font:14px Menlo,Monaco,&quot;Courier New&quot;,monospace"><tspan x="214" y="206">worker</tspan></text><line x1="239" x2="239" y1="43" y2="184" fill="none" stroke="#000" style="stroke-width:2px"/><rect width="45" height="33" x="400" y="10" fill="#fff" stroke="#000" style="stroke-width:2px"/><text x="410" y="33" text-anchor="start" style="font:14px Menlo,Monaco,&quot;Courier New&quot;,monospace"><tspan x="410" y="33">p2p</tspan></text><rect width="45" height="33" x="400" y="184" fill="#fff" stroke="#000" style="stroke-width:2px"/><text x="410" y="207" text-anchor="start" style="font:14px Menlo,Monaco,&quot;Courier New&quot;,monospace"><tspan x="410" y="207">p2p</tspan></text><line x1="422" x2="422" y1="43" y2="184" fill="none" stroke="#000" style="stroke-width:2px"/><rect width="70" height="33" x="465" y="10" fill="#fff" stroke="#000" style="stroke-width:2px"/><text x="475" y="31" text-anchor="start" style="font:14px Menlo,Monaco,&quot;Courier New&quot;,monospace"><tspan x="475" y="31">kernel</tspan></text><rect width="70" height="33" x="465" y="184" fill="#fff" stroke="#000" style="stroke-width:2px"/><text x="475" y="206" text-anchor="start" style="font:14px Menlo,Monaco,&quot;Courier New&quot;,monospace"><tspan x="475" y="206">kernel</tspan></text><line x1="500" x2="500" y1="43" y2="184" fill="none" stroke="#000" style="stroke-width:2px"/><text x="46" y="73" text-anchor="start" style="font:14px Menlo,Monaco,&quot;Courier New&quot;,monospace"><tspan x="46" y="73">save state</tspan></text><line x1="36" x2="140" y1="78" y2="78" fill="none" stroke="#000" marker-end="url(#markerArrowBlock)" style="stroke-width:2px"/><text x="173" y="101" text-anchor="start" style="font:14px Menlo,Monaco,&quot;Courier New&quot;,monospace"><tspan x="173" y="101">save</tspan></text><line x1="140" x2="239" y1="106" y2="106" fill="none" stroke="#000" marker-end="url(#markerArrowBlock)" style="stroke-width:2px"/><line x1="239" x2="259" y1="121" y2="121" fill="none" stroke="#000" style="stroke-width:2px"/><line x1="259" x2="259" y1="121" y2="136" fill="none" stroke="#000" style="stroke-width:2px"/><line x1="259" x2="239" y1="136" y2="136" fill="none" stroke="#000" marker-end="url(#markerArrowBlock)" style="stroke-width:2px"/><text x="264" y="134" text-anchor="start" style="font:14px Menlo,Monaco,&quot;Courier New&quot;,monospace"><tspan x="264" y="134">serialize scene</tspan></text><line x1="239" x2="259" y1="151" y2="151" fill="none" stroke="#000" style="stroke-width:2px"/><line x1="259" x2="259" y1="151" y2="169" fill="none" stroke="#000" style="stroke-width:2px"/><line x1="259" x2="239" y1="169" y2="169" fill="none" stroke="#000" marker-end="url(#markerArrowBlock)" style="stroke-width:2px"/><text x="264" y="166" text-anchor="start" style="font:14px Menlo,Monaco,&quot;Courier New&quot;,monospace"><tspan x="264" y="166">save JSON (POST?)</tspan></text></svg>