<svg xmlns="http://www.w3.org/2000/svg" width="700" height="318"><defs><marker id="markerArrowBlock" markerHeight="5" markerWidth="5" orient="auto" refX="5" refY="2.5" viewBox="0 0 5 5"><path d="M 0 0 L 5 2.5 L 0 5 z"/></marker><marker id="markerArrowOpen" markerHeight="16" markerWidth="4" orient="auto" refX="9.6" refY="8" viewBox="0 0 9.6 16"><path d="M 9.6,8 1.92,16 0,13.7 5.76,8 0,2.286 1.92,0 9.6,8 z"/></marker></defs><rect width="53" height="33" x="10" y="10" fill="#fff" stroke="#000" style="stroke-width:2px"/><text x="20" y="30" text-anchor="start" style="font:14px Menlo,Monaco,&quot;Courier New&quot;,monospace"><tspan x="20" y="30">user</tspan></text><rect width="53" height="33" x="10" y="255" fill="#fff" stroke="#000" style="stroke-width:2px"/><text x="20" y="275" text-anchor="start" style="font:14px Menlo,Monaco,&quot;Courier New&quot;,monospace"><tspan x="20" y="275">user</tspan></text><line x1="36" x2="36" y1="43" y2="255" fill="none" stroke="#000" style="stroke-width:2px"/><rect width="70" height="33" x="105" y="10" fill="#fff" stroke="#000" style="stroke-width:2px"/><text x="115" y="31" text-anchor="start" style="font:14px Menlo,Monaco,&quot;Courier New&quot;,monospace"><tspan x="115" y="31">kernel</tspan></text><rect width="70" height="33" x="105" y="255" fill="#fff" stroke="#000" style="stroke-width:2px"/><text x="115" y="277" text-anchor="start" style="font:14px Menlo,Monaco,&quot;Courier New&quot;,monospace"><tspan x="115" y="277">kernel</tspan></text><line x1="140" x2="140" y1="43" y2="255" fill="none" stroke="#000" style="stroke-width:2px"/><rect width="70" height="33" x="234" y="10" fill="#fff" stroke="#000" style="stroke-width:2px"/><text x="244" y="31" text-anchor="start" style="font:14px Menlo,Monaco,&quot;Courier New&quot;,monospace"><tspan x="244" y="31">worker</tspan></text><rect width="70" height="33" x="234" y="255" fill="#fff" stroke="#000" style="stroke-width:2px"/><text x="244" y="277" text-anchor="start" style="font:14px Menlo,Monaco,&quot;Courier New&quot;,monospace"><tspan x="244" y="277">worker</tspan></text><line x1="269" x2="269" y1="43" y2="255" fill="none" stroke="#000" style="stroke-width:2px"/><rect width="87" height="33" x="518" y="10" fill="#fff" stroke="#000" style="stroke-width:2px"/><text x="528" y="31" text-anchor="start" style="font:14px Menlo,Monaco,&quot;Courier New&quot;,monospace"><tspan x="528" y="31">renderer</tspan></text><rect width="87" height="33" x="518" y="255" fill="#fff" stroke="#000" style="stroke-width:2px"/><text x="528" y="277" text-anchor="start" style="font:14px Menlo,Monaco,&quot;Courier New&quot;,monospace"><tspan x="528" y="277">renderer</tspan></text><line x1="561" x2="561" y1="43" y2="255" fill="none" stroke="#000" style="stroke-width:2px"/><rect width="45" height="33" x="625" y="10" fill="#fff" stroke="#000" style="stroke-width:2px"/><text x="635" y="33" text-anchor="start" style="font:14px Menlo,Monaco,&quot;Courier New&quot;,monospace"><tspan x="635" y="33">p2p</tspan></text><rect width="45" height="33" x="625" y="255" fill="#fff" stroke="#000" style="stroke-width:2px"/><text x="635" y="278" text-anchor="start" style="font:14px Menlo,Monaco,&quot;Courier New&quot;,monospace"><tspan x="635" y="278">p2p</tspan></text><line x1="648" x2="648" y1="43" y2="255" fill="none" stroke="#000" style="stroke-width:2px"/><text x="46" y="73" text-anchor="start" style="font:14px Menlo,Monaco,&quot;Courier New&quot;,monospace"><tspan x="46" y="73">load scene</tspan></text><line x1="36" x2="140" y1="78" y2="78" fill="none" stroke="#000" marker-end="url(#markerArrowBlock)" style="stroke-width:2px"/><text x="149" y="104" text-anchor="start" style="font:14px Menlo,Monaco,&quot;Courier New&quot;,monospace"><tspan x="149" y="104">create worker</tspan></text><line x1="140" x2="269" y1="109" y2="109" fill="none" stroke="#000" marker-end="url(#markerArrowBlock)" style="stroke-width:2px"/><line x1="269" x2="289" y1="124" y2="124" fill="none" stroke="#000" style="stroke-width:2px"/><line x1="289" x2="289" y1="124" y2="142" fill="none" stroke="#000" style="stroke-width:2px"/><line x1="289" x2="269" y1="142" y2="142" fill="none" stroke="#000" marker-end="url(#markerArrowBlock)" style="stroke-width:2px"/><text x="294" y="139" text-anchor="start" style="font:14px Menlo,Monaco,&quot;Courier New&quot;,monospace"><tspan x="294" y="139">load scene (JSON)</tspan></text><text x="364" y="168" text-anchor="start" style="font:14px Menlo,Monaco,&quot;Courier New&quot;,monospace"><tspan x="364" y="168">inform state</tspan></text><line x1="269" x2="561" y1="173" y2="173" fill="none" stroke="#000" stroke-dasharray="6 2" marker-end="url(#markerArrowBlock)" style="stroke-width:2px"/><line x1="269" x2="289" y1="188" y2="188" fill="none" stroke="#000" style="stroke-width:2px"/><line x1="289" x2="289" y1="188" y2="206" fill="none" stroke="#000" style="stroke-width:2px"/><line x1="289" x2="269" y1="206" y2="206" fill="none" stroke="#000" marker-end="url(#markerArrowBlock)" style="stroke-width:2px"/><text x="294" y="204" text-anchor="start" style="font:14px Menlo,Monaco,&quot;Courier New&quot;,monospace"><tspan x="294" y="204">connect to synchronization bus</tspan></text><text x="154" y="235" text-anchor="start" style="font:14px Menlo,Monaco,&quot;Courier New&quot;,monospace"><tspan x="154" y="235">init p2p bus</tspan></text><line x1="269" x2="140" y1="240" y2="240" fill="none" stroke="#000" marker-end="url(#markerArrowBlock)" style="stroke-width:2px"/></svg>