<svg xmlns="http://www.w3.org/2000/svg" width="511" height="323"><defs><marker id="markerArrowBlock" markerHeight="5" markerWidth="5" orient="auto" refX="5" refY="2.5" viewBox="0 0 5 5"><path d="M 0 0 L 5 2.5 L 0 5 z"/></marker><marker id="markerArrowOpen" markerHeight="16" markerWidth="4" orient="auto" refX="9.6" refY="8" viewBox="0 0 9.6 16"><path d="M 9.6,8 1.92,16 0,13.7 5.76,8 0,2.286 1.92,0 9.6,8 z"/></marker></defs><rect width="53" height="33" x="10" y="10" fill="#fff" stroke="#000" style="stroke-width:2px"/><text x="20" y="30" text-anchor="start" style="font:14px Menlo,Monaco,&quot;Courier New&quot;,monospace"><tspan x="20" y="30">user</tspan></text><rect width="53" height="33" x="10" y="260" fill="#fff" stroke="#000" style="stroke-width:2px"/><text x="20" y="281" text-anchor="start" style="font:14px Menlo,Monaco,&quot;Courier New&quot;,monospace"><tspan x="20" y="281">user</tspan></text><line x1="36" x2="36" y1="43" y2="260" fill="none" stroke="#000" style="stroke-width:2px"/><rect width="70" height="33" x="83" y="10" fill="#fff" stroke="#000" style="stroke-width:2px"/><text x="93" y="31" text-anchor="start" style="font:14px Menlo,Monaco,&quot;Courier New&quot;,monospace"><tspan x="93" y="31">kernel</tspan></text><rect width="70" height="33" x="83" y="260" fill="#fff" stroke="#000" style="stroke-width:2px"/><text x="93" y="282" text-anchor="start" style="font:14px Menlo,Monaco,&quot;Courier New&quot;,monospace"><tspan x="93" y="282">kernel</tspan></text><line x1="119" x2="119" y1="43" y2="260" fill="none" stroke="#000" style="stroke-width:2px"/><rect width="70" height="33" x="174" y="10" fill="#fff" stroke="#000" style="stroke-width:2px"/><text x="184" y="31" text-anchor="start" style="font:14px Menlo,Monaco,&quot;Courier New&quot;,monospace"><tspan x="184" y="31">worker</tspan></text><rect width="70" height="33" x="174" y="260" fill="#fff" stroke="#000" style="stroke-width:2px"/><text x="184" y="282" text-anchor="start" style="font:14px Menlo,Monaco,&quot;Courier New&quot;,monospace"><tspan x="184" y="282">worker</tspan></text><line x1="209" x2="209" y1="43" y2="260" fill="none" stroke="#000" style="stroke-width:2px"/><rect width="87" height="33" x="277" y="10" fill="#fff" stroke="#000" style="stroke-width:2px"/><text x="287" y="31" text-anchor="start" style="font:14px Menlo,Monaco,&quot;Courier New&quot;,monospace"><tspan x="287" y="31">renderer</tspan></text><rect width="87" height="33" x="277" y="260" fill="#fff" stroke="#000" style="stroke-width:2px"/><text x="287" y="282" text-anchor="start" style="font:14px Menlo,Monaco,&quot;Courier New&quot;,monospace"><tspan x="287" y="282">renderer</tspan></text><line x1="320" x2="320" y1="43" y2="260" fill="none" stroke="#000" style="stroke-width:2px"/><rect width="45" height="33" x="436" y="10" fill="#fff" stroke="#000" style="stroke-width:2px"/><text x="446" y="33" text-anchor="start" style="font:14px Menlo,Monaco,&quot;Courier New&quot;,monospace"><tspan x="446" y="33">p2p</tspan></text><rect width="45" height="33" x="436" y="260" fill="#fff" stroke="#000" style="stroke-width:2px"/><text x="446" y="283" text-anchor="start" style="font:14px Menlo,Monaco,&quot;Courier New&quot;,monospace"><tspan x="446" y="283">p2p</tspan></text><line x1="458" x2="458" y1="43" y2="260" fill="none" stroke="#000" style="stroke-width:2px"/><text x="183" y="77" text-anchor="start" style="font:14px Menlo,Monaco,&quot;Courier New&quot;,monospace"><tspan x="183" y="77">edition beacon {scene xy}</tspan></text><line x1="458" x2="119" y1="82" y2="82" fill="none" stroke="#000" stroke-dasharray="6 2" marker-end="url(#markerArrowBlock)" style="stroke-width:2px"/><text x="169" y="108" text-anchor="start" style="font:14px Menlo,Monaco,&quot;Courier New&quot;,monospace"><tspan x="169" y="108">edition mode</tspan></text><line x1="119" x2="320" y1="113" y2="113" fill="none" stroke="#000" stroke-dasharray="6 2" marker-end="url(#markerArrowBlock)" style="stroke-width:2px"/><text x="218" y="139" text-anchor="start" style="font:14px Menlo,Monaco,&quot;Courier New&quot;,monospace"><tspan x="218" y="139">kill worker</tspan></text><line x1="320" x2="209" y1="144" y2="144" fill="none" stroke="#000" stroke-dasharray="6 2" marker-end="url(#markerArrowBlock)" style="stroke-width:2px"/><text x="330" y="172" text-anchor="start" style="font:14px Menlo,Monaco,&quot;Courier New&quot;,monospace"><tspan x="330" y="172">process update</tspan></text><line x1="458" x2="320" y1="177" y2="177" fill="none" stroke="#000" stroke-dasharray="6 2" marker-end="url(#markerArrowBlock)" style="stroke-width:2px"/><text x="60" y="206" text-anchor="start" style="font:14px Menlo,Monaco,&quot;Courier New&quot;,monospace"><tspan x="60" y="206">perform changes (if allowed)</tspan></text><line x1="36" x2="320" y1="211" y2="211" fill="none" stroke="#000" marker-end="url(#markerArrowBlock)" style="stroke-width:2px"/><text x="330" y="240" text-anchor="start" style="font:14px Menlo,Monaco,&quot;Courier New&quot;,monospace"><tspan x="330" y="240">process update</tspan></text><line x1="458" x2="320" y1="245" y2="245" fill="none" stroke="#000" stroke-dasharray="6 2" marker-end="url(#markerArrowBlock)" style="stroke-width:2px"/></svg>