<svg xmlns="http://www.w3.org/2000/svg" width="904" height="377"><defs><marker id="markerArrowBlock" markerHeight="5" markerWidth="5" orient="auto" refX="5" refY="2.5" viewBox="0 0 5 5"><path d="M 0 0 L 5 2.5 L 0 5 z"/></marker><marker id="markerArrowOpen" markerHeight="16" markerWidth="4" orient="auto" refX="9.6" refY="8" viewBox="0 0 9.6 16"><path d="M 9.6,8 1.92,16 0,13.7 5.76,8 0,2.286 1.92,0 9.6,8 z"/></marker></defs><rect style="stroke-width:2px" width="53" height="33" x="10" y="10" fill="#fff" stroke="#000"/><text style="font:14px Menlo,Monaco,&quot;Courier New&quot;,monospace" x="20" y="30" text-anchor="start"><tspan x="20" y="30">user</tspan></text><rect style="stroke-width:2px" width="53" height="33" x="10" y="314" fill="#fff" stroke="#000"/><text style="font:14px Menlo,Monaco,&quot;Courier New&quot;,monospace" x="20" y="335" text-anchor="start"><tspan x="20" y="335">user</tspan></text><line style="stroke-width:2px" x1="36" x2="36" y1="43" y2="314" fill="none" stroke="#000"/><rect style="stroke-width:2px" width="70" height="33" x="113" y="10" fill="#fff" stroke="#000"/><text style="font:14px Menlo,Monaco,&quot;Courier New&quot;,monospace" x="123" y="31" text-anchor="start"><tspan x="123" y="31">worker</tspan></text><rect style="stroke-width:2px" width="70" height="33" x="113" y="314" fill="#fff" stroke="#000"/><text style="font:14px Menlo,Monaco,&quot;Courier New&quot;,monospace" x="123" y="336" text-anchor="start"><tspan x="123" y="336">worker</tspan></text><line style="stroke-width:2px" x1="148" x2="148" y1="43" y2="314" fill="none" stroke="#000"/><rect style="stroke-width:2px" width="104" height="33" x="248" y="10" fill="#fff" stroke="#000"/><text style="font:14px Menlo,Monaco,&quot;Courier New&quot;,monospace" x="258" y="33" text-anchor="start"><tspan x="258" y="33">new_worker</tspan></text><rect style="stroke-width:2px" width="104" height="33" x="248" y="314" fill="#fff" stroke="#000"/><text style="font:14px Menlo,Monaco,&quot;Courier New&quot;,monospace" x="258" y="337" text-anchor="start"><tspan x="258" y="337">new_worker</tspan></text><line style="stroke-width:2px" x1="300" x2="300" y1="43" y2="314" fill="none" stroke="#000"/><rect style="stroke-width:2px" width="138" height="33" x="411" y="10" fill="#fff" stroke="#000"/><text style="font:14px Menlo,Monaco,&quot;Courier New&quot;,monospace" x="421" y="32" text-anchor="start"><tspan x="421" y="32">content_server</tspan></text><rect style="stroke-width:2px" width="138" height="33" x="411" y="314" fill="#fff" stroke="#000"/><text style="font:14px Menlo,Monaco,&quot;Courier New&quot;,monospace" x="421" y="337" text-anchor="start"><tspan x="421" y="337">content_server</tspan></text><line style="stroke-width:2px" x1="480" x2="480" y1="43" y2="314" fill="none" stroke="#000"/><rect style="stroke-width:2px" width="87" height="33" x="569" y="10" fill="#fff" stroke="#000"/><text style="font:14px Menlo,Monaco,&quot;Courier New&quot;,monospace" x="579" y="31" text-anchor="start"><tspan x="579" y="31">renderer</tspan></text><rect style="stroke-width:2px" width="87" height="33" x="569" y="314" fill="#fff" stroke="#000"/><text style="font:14px Menlo,Monaco,&quot;Courier New&quot;,monospace" x="579" y="336" text-anchor="start"><tspan x="579" y="336">renderer</tspan></text><line style="stroke-width:2px" x1="612" x2="612" y1="43" y2="314" fill="none" stroke="#000"/><rect style="stroke-width:2px" width="45" height="33" x="829" y="10" fill="#fff" stroke="#000"/><text style="font:14px Menlo,Monaco,&quot;Courier New&quot;,monospace" x="839" y="33" text-anchor="start"><tspan x="839" y="33">p2p</tspan></text><rect style="stroke-width:2px" width="45" height="33" x="829" y="314" fill="#fff" stroke="#000"/><text style="font:14px Menlo,Monaco,&quot;Courier New&quot;,monospace" x="839" y="338" text-anchor="start"><tspan x="839" y="338">p2p</tspan></text><line style="stroke-width:2px" x1="851" x2="851" y1="43" y2="314" fill="none" stroke="#000"/><text style="font:14px Menlo,Monaco,&quot;Courier New&quot;,monospace" x="46" y="73" text-anchor="start"><tspan x="46" y="73">kill worker</tspan></text><line style="stroke-width:2px" x1="36" x2="148" y1="78" y2="78" fill="none" stroke="#000" marker-end="url(#markerArrowBlock)"/><text style="font:14px Menlo,Monaco,&quot;Courier New&quot;,monospace" x="46" y="108" text-anchor="start"><tspan x="46" y="108">create for edition (scene xy)</tspan></text><line style="stroke-width:2px" x1="36" x2="300" y1="113" y2="113" fill="none" stroke="#000" marker-end="url(#markerArrowBlock)"/><text style="font:14px Menlo,Monaco,&quot;Courier New&quot;,monospace" x="309" y="142" text-anchor="start"><tspan x="309" y="142">get JSON (scene xy)</tspan></text><line style="stroke-width:2px" x1="300" x2="480" y1="147" y2="147" fill="none" stroke="#000" marker-end="url(#markerArrowBlock)"/><line style="stroke-width:2px" x1="480" x2="300" y1="167" y2="167" fill="none" stroke="#000" marker-end="url(#markerArrowBlock)"/><text style="font:14px Menlo,Monaco,&quot;Courier New&quot;,monospace" x="401" y="193" text-anchor="start"><tspan x="401" y="193">initial state</tspan></text><line style="stroke-width:2px" x1="300" x2="612" y1="198" y2="198" fill="none" stroke="#000" marker-end="url(#markerArrowBlock)"/><text style="font:14px Menlo,Monaco,&quot;Courier New&quot;,monospace" x="414" y="226" text-anchor="start"><tspan x="414" y="226">update-msg</tspan></text><line style="stroke-width:2px" x1="612" x2="300" y1="231" y2="231" fill="none" stroke="#000" stroke-dasharray="6 2" marker-end="url(#markerArrowBlock)"/><text style="font:14px Menlo,Monaco,&quot;Courier New&quot;,monospace" x="622" y="261" text-anchor="start"><tspan x="622" y="261">update-msg (for broadcast)</tspan></text><line style="stroke-width:2px" x1="612" x2="851" y1="266" y2="266" fill="none" stroke="#000" stroke-dasharray="6 2" marker-end="url(#markerArrowBlock)"/><text style="font:14px Menlo,Monaco,&quot;Courier New&quot;,monospace" x="533" y="294" text-anchor="start"><tspan x="533" y="294">update-msg</tspan></text><line style="stroke-width:2px" x1="851" x2="300" y1="299" y2="299" fill="none" stroke="#000" stroke-dasharray="6 2" marker-end="url(#markerArrowBlock)"/></svg>