<svg xmlns="http://www.w3.org/2000/svg" width="998" height="355"><defs><marker id="markerArrowBlock" markerHeight="5" markerWidth="5" orient="auto" refX="5" refY="2.5" viewBox="0 0 5 5"><path d="M 0 0 L 5 2.5 L 0 5 z"/></marker><marker id="markerArrowOpen" markerHeight="16" markerWidth="4" orient="auto" refX="9.6" refY="8" viewBox="0 0 9.6 16"><path d="M 9.6,8 1.92,16 0,13.7 5.76,8 0,2.286 1.92,0 9.6,8 z"/></marker></defs><rect width="53" height="33" x="10" y="10" fill="#fff" stroke="#000" style="stroke-width:2px"/><text x="20" y="31" text-anchor="start" style="font:14px Menlo,Monaco,&quot;Courier New&quot;,monospace"><tspan x="20" y="31">User</tspan></text><rect width="53" height="33" x="10" y="292" fill="#fff" stroke="#000" style="stroke-width:2px"/><text x="20" y="314" text-anchor="start" style="font:14px Menlo,Monaco,&quot;Courier New&quot;,monospace"><tspan x="20" y="314">User</tspan></text><line x1="36" x2="36" y1="43" y2="292" fill="none" stroke="#000" style="stroke-width:2px"/><rect width="146" height="33" x="117" y="10" fill="#fff" stroke="#000" style="stroke-width:2px"/><text x="127" y="33" text-anchor="start" style="font:14px Menlo,Monaco,&quot;Courier New&quot;,monospace"><tspan x="127" y="33">L2_Collection_1</tspan></text><rect width="146" height="33" x="117" y="292" fill="#fff" stroke="#000" style="stroke-width:2px"/><text x="127" y="316" text-anchor="start" style="font:14px Menlo,Monaco,&quot;Courier New&quot;,monospace"><tspan x="127" y="316">L2_Collection_1</tspan></text><line x1="190" x2="190" y1="43" y2="292" fill="none" stroke="#000" style="stroke-width:2px"/><rect width="95" height="33" x="296" y="10" fill="#fff" stroke="#000" style="stroke-width:2px"/><text x="306" y="33" text-anchor="start" style="font:14px Menlo,Monaco,&quot;Courier New&quot;,monospace"><tspan x="306" y="33">L2_Bridge</tspan></text><rect width="95" height="33" x="296" y="292" fill="#fff" stroke="#000" style="stroke-width:2px"/><text x="306" y="316" text-anchor="start" style="font:14px Menlo,Monaco,&quot;Courier New&quot;,monospace"><tspan x="306" y="316">L2_Bridge</tspan></text><line x1="343" x2="343" y1="43" y2="292" fill="none" stroke="#000" style="stroke-width:2px"/><rect width="121" height="33" x="421" y="10" fill="#fff" stroke="#000" style="stroke-width:2px"/><text x="431" y="33" text-anchor="start" style="font:14px Menlo,Monaco,&quot;Courier New&quot;,monospace"><tspan x="431" y="33">L2_Validator</tspan></text><rect width="121" height="33" x="421" y="292" fill="#fff" stroke="#000" style="stroke-width:2px"/><text x="431" y="316" text-anchor="start" style="font:14px Menlo,Monaco,&quot;Courier New&quot;,monospace"><tspan x="431" y="316">L2_Validator</tspan></text><line x1="481" x2="481" y1="43" y2="292" fill="none" stroke="#000" style="stroke-width:2px"/><rect width="95" height="33" x="582" y="10" fill="#fff" stroke="#000" style="stroke-width:2px"/><text x="592" y="33" text-anchor="start" style="font:14px Menlo,Monaco,&quot;Courier New&quot;,monospace"><tspan x="592" y="33">L1_Bridge</tspan></text><rect width="95" height="33" x="582" y="292" fill="#fff" stroke="#000" style="stroke-width:2px"/><text x="592" y="316" text-anchor="start" style="font:14px Menlo,Monaco,&quot;Courier New&quot;,monospace"><tspan x="592" y="316">L1_Bridge</tspan></text><line x1="629" x2="629" y1="43" y2="292" fill="none" stroke="#000" style="stroke-width:2px"/><rect width="104" height="33" x="697" y="10" fill="#fff" stroke="#000" style="stroke-width:2px"/><text x="707" y="33" text-anchor="start" style="font:14px Menlo,Monaco,&quot;Courier New&quot;,monospace"><tspan x="707" y="33">L1_Factory</tspan></text><rect width="104" height="33" x="697" y="292" fill="#fff" stroke="#000" style="stroke-width:2px"/><text x="707" y="316" text-anchor="start" style="font:14px Menlo,Monaco,&quot;Courier New&quot;,monospace"><tspan x="707" y="316">L1_Factory</tspan></text><line x1="750" x2="750" y1="43" y2="292" fill="none" stroke="#000" style="stroke-width:2px"/><rect width="146" height="33" x="822" y="10" fill="#fff" stroke="#000" style="stroke-width:2px"/><text x="832" y="33" text-anchor="start" style="font:14px Menlo,Monaco,&quot;Courier New&quot;,monospace"><tspan x="832" y="33">L1_Collection_1</tspan></text><rect width="146" height="33" x="822" y="292" fill="#fff" stroke="#000" style="stroke-width:2px"/><text x="832" y="316" text-anchor="start" style="font:14px Menlo,Monaco,&quot;Courier New&quot;,monospace"><tspan x="832" y="316">L1_Collection_1</tspan></text><line x1="895" x2="895" y1="43" y2="292" fill="none" stroke="#000" style="stroke-width:2px"/><text x="373" y="76" text-anchor="start" style="font:14px Menlo,Monaco,&quot;Courier New&quot;,monospace"><tspan x="373" y="76">Transfer token_1 to L2</tspan></text><line x1="36" x2="895" y1="81" y2="81" fill="none" stroke="#000" marker-end="url(#markerArrowBlock)" style="stroke-width:2px"/><text x="712" y="109" text-anchor="start" style="font:14px Menlo,Monaco,&quot;Courier New&quot;,monospace"><tspan x="712" y="109">Burn token_1</tspan></text><line x1="895" x2="629" y1="114" y2="114" fill="none" stroke="#000" marker-end="url(#markerArrowBlock)" style="stroke-width:2px"/><text x="505" y="142" text-anchor="start" style="font:14px Menlo,Monaco,&quot;Courier New&quot;,monospace"><tspan x="505" y="142">Compute burn</tspan></text><line x1="481" x2="629" y1="147" y2="147" fill="none" stroke="#000" stroke-dasharray="6 2" marker-end="url(#markerArrowBlock)" style="stroke-width:2px"/><line x1="481" x2="501" y1="162" y2="162" fill="none" stroke="#000" style="stroke-width:2px"/><line x1="501" x2="501" y1="162" y2="178" fill="none" stroke="#000" style="stroke-width:2px"/><line x1="501" x2="481" y1="178" y2="178" fill="none" stroke="#000" marker-end="url(#markerArrowBlock)" style="stroke-width:2px"/><text x="506" y="176" text-anchor="start" style="font:14px Menlo,Monaco,&quot;Courier New&quot;,monospace"><tspan x="506" y="176">Validate burn</tspan></text><text x="353" y="206" text-anchor="start" style="font:14px Menlo,Monaco,&quot;Courier New&quot;,monospace"><tspan x="353" y="206">Unlock token_1</tspan></text><line x1="481" x2="343" y1="211" y2="211" fill="none" stroke="#000" marker-end="url(#markerArrowBlock)" style="stroke-width:2px"/><text x="199" y="239" text-anchor="start" style="font:14px Menlo,Monaco,&quot;Courier New&quot;,monospace"><tspan x="199" y="239">Transfer token_1</tspan></text><line x1="343" x2="190" y1="244" y2="244" fill="none" stroke="#000" stroke-dasharray="6 2" marker-end="url(#markerArrowBlock)" style="stroke-width:2px"/><text x="46" y="272" text-anchor="start" style="font:14px Menlo,Monaco,&quot;Courier New&quot;,monospace"><tspan x="46" y="272">Transfer token_1</tspan></text><line x1="190" x2="36" y1="277" y2="277" fill="none" stroke="#000" marker-end="url(#markerArrowBlock)" style="stroke-width:2px"/></svg>